<svg width="849" height="247" viewBox="0 0 849 247" fill="none" xmlns="http://www.w3.org/2000/svg">
<rect x="0.5" y="0.5" width="834" height="246" rx="13.5" fill="white" stroke="white"/>
<path d="M66.4727 82.27C65.8327 82.27 65.3027 82.13 64.8827 81.85C64.4827 81.55 64.1527 81.1 63.8927 80.5L56.3327 63.7C56.0527 63.1 55.9727 62.57 56.0927 62.11C56.2127 61.63 56.4627 61.26 56.8427 61C57.2227 60.72 57.6827 60.58 58.2227 60.58C58.9027 60.58 59.4227 60.74 59.7827 61.06C60.1427 61.36 60.4427 61.81 60.6827 62.41L67.3127 77.74H65.8127L72.4427 62.38C72.7027 61.78 73.0127 61.33 73.3727 61.03C73.7327 60.73 74.2327 60.58 74.8727 60.58C75.4127 60.58 75.8527 60.72 76.1927 61C76.5527 61.26 76.7727 61.63 76.8527 62.11C76.9527 62.57 76.8727 63.1 76.6127 63.7L69.0527 80.5C68.7727 81.1 68.4327 81.55 68.0327 81.85C67.6527 82.13 67.1327 82.27 66.4727 82.27ZM81.8196 82.27C81.0596 82.27 80.4796 82.06 80.0796 81.64C79.6796 81.22 79.4796 80.63 79.4796 79.87V62.98C79.4796 62.22 79.6796 61.63 80.0796 61.21C80.4796 60.79 81.0596 60.58 81.8196 60.58C82.5596 60.58 83.1296 60.79 83.5296 61.21C83.9296 61.63 84.1296 62.22 84.1296 62.98V79.87C84.1296 80.63 83.9296 81.22 83.5296 81.64C83.1496 82.06 82.5796 82.27 81.8196 82.27ZM90.7259 82.27C89.9659 82.27 89.3859 82.06 88.9859 81.64C88.5859 81.22 88.3859 80.63 88.3859 79.87V63.22C88.3859 62.44 88.5859 61.85 88.9859 61.45C89.4059 61.05 89.9959 60.85 90.7559 60.85H98.0459C100.406 60.85 102.226 61.42 103.506 62.56C104.786 63.7 105.426 65.29 105.426 67.33C105.426 68.65 105.136 69.79 104.556 70.75C103.976 71.71 103.136 72.45 102.036 72.97C100.956 73.49 99.6259 73.75 98.0459 73.75L98.2859 73.24H99.5159C100.356 73.24 101.086 73.45 101.706 73.87C102.346 74.27 102.896 74.89 103.356 75.73L105.216 79.18C105.496 79.68 105.626 80.17 105.606 80.65C105.586 81.13 105.406 81.52 105.066 81.82C104.726 82.12 104.226 82.27 103.566 82.27C102.906 82.27 102.366 82.13 101.946 81.85C101.546 81.57 101.186 81.14 100.866 80.56L97.9859 75.25C97.6859 74.69 97.3159 74.31 96.8759 74.11C96.4559 73.91 95.9359 73.81 95.3159 73.81H93.0359V79.87C93.0359 80.63 92.8359 81.22 92.4359 81.64C92.0559 82.06 91.4859 82.27 90.7259 82.27ZM93.0359 70.45H97.2059C98.4459 70.45 99.3759 70.2 99.9959 69.7C100.636 69.2 100.956 68.45 100.956 67.45C100.956 66.47 100.636 65.73 99.9959 65.23C99.3759 64.73 98.4459 64.48 97.2059 64.48H93.0359V70.45ZM116.069 82.27C115.309 82.27 114.729 82.06 114.329 81.64C113.929 81.22 113.729 80.63 113.729 79.87V64.69H108.419C107.799 64.69 107.319 64.52 106.979 64.18C106.639 63.84 106.469 63.37 106.469 62.77C106.469 62.15 106.639 61.68 106.979 61.36C107.319 61.02 107.799 60.85 108.419 60.85H123.689C124.309 60.85 124.789 61.02 125.129 61.36C125.469 61.68 125.639 62.15 125.639 62.77C125.639 63.37 125.469 63.84 125.129 64.18C124.789 64.52 124.309 64.69 123.689 64.69H118.379V79.87C118.379 80.63 118.179 81.22 117.779 81.64C117.399 82.06 116.829 82.27 116.069 82.27ZM136.704 82.33C135.204 82.33 133.874 82.14 132.714 81.76C131.574 81.36 130.614 80.78 129.834 80.02C129.054 79.26 128.464 78.31 128.064 77.17C127.684 76.01 127.494 74.67 127.494 73.15V62.95C127.494 62.17 127.694 61.58 128.094 61.18C128.494 60.78 129.074 60.58 129.834 60.58C130.574 60.58 131.144 60.78 131.544 61.18C131.944 61.58 132.144 62.17 132.144 62.95V73.18C132.144 74.9 132.534 76.2 133.314 77.08C134.094 77.94 135.224 78.37 136.704 78.37C138.184 78.37 139.304 77.94 140.064 77.08C140.844 76.2 141.234 74.9 141.234 73.18V62.95C141.234 62.17 141.434 61.58 141.834 61.18C142.234 60.78 142.804 60.58 143.544 60.58C144.284 60.58 144.844 60.78 145.224 61.18C145.624 61.58 145.824 62.17 145.824 62.95V73.15C145.824 75.17 145.474 76.87 144.774 78.25C144.094 79.61 143.074 80.63 141.714 81.31C140.374 81.99 138.704 82.33 136.704 82.33ZM150.392 82.27C149.832 82.27 149.372 82.14 149.012 81.88C148.672 81.62 148.452 81.27 148.352 80.83C148.272 80.39 148.362 79.9 148.622 79.36L156.302 62.53C156.622 61.85 157.002 61.36 157.442 61.06C157.882 60.74 158.392 60.58 158.972 60.58C159.552 60.58 160.062 60.74 160.502 61.06C160.942 61.36 161.312 61.85 161.612 62.53L169.352 79.36C169.612 79.9 169.702 80.4 169.622 80.86C169.562 81.3 169.362 81.65 169.022 81.91C168.682 82.15 168.242 82.27 167.702 82.27C167.022 82.27 166.492 82.11 166.112 81.79C165.752 81.47 165.432 80.97 165.152 80.29L163.352 76.12L165.212 77.41H152.702L154.562 76.12L152.792 80.29C152.492 80.99 152.172 81.5 151.832 81.82C151.512 82.12 151.032 82.27 150.392 82.27ZM158.912 65.8L155.072 74.95L154.262 73.78H163.652L162.842 74.95L158.972 65.8H158.912ZM174.75 82C173.99 82 173.4 81.79 172.98 81.37C172.58 80.95 172.38 80.37 172.38 79.63V63.16C172.38 62.38 172.58 61.79 172.98 61.39C173.38 60.99 173.96 60.79 174.72 60.79C175.46 60.79 176.03 60.99 176.43 61.39C176.83 61.79 177.03 62.38 177.03 63.16V78.07H185.07C185.71 78.07 186.2 78.24 186.54 78.58C186.9 78.92 187.08 79.4 187.08 80.02C187.08 80.66 186.9 81.15 186.54 81.49C186.2 81.83 185.71 82 185.07 82H174.75ZM70.873 123.27C70.193 123.27 69.673 123.08 69.313 122.7C68.953 122.32 68.773 121.79 68.773 121.11V103.74C68.773 103.06 68.963 102.53 69.343 102.15C69.743 101.77 70.283 101.58 70.963 101.58C71.563 101.58 72.033 101.7 72.373 101.94C72.733 102.16 73.063 102.55 73.363 103.11L80.293 115.77H79.273L86.203 103.11C86.503 102.55 86.823 102.16 87.163 101.94C87.523 101.7 87.993 101.58 88.573 101.58C89.253 101.58 89.773 101.77 90.133 102.15C90.513 102.53 90.703 103.06 90.703 103.74V121.11C90.703 121.79 90.523 122.32 90.163 122.7C89.803 123.08 89.283 123.27 88.603 123.27C87.923 123.27 87.393 123.08 87.013 122.7C86.653 122.32 86.473 121.79 86.473 121.11V108.96H87.133L81.553 118.95C81.313 119.33 81.053 119.62 80.773 119.82C80.513 120 80.163 120.09 79.723 120.09C79.283 120.09 78.923 119.99 78.643 119.79C78.363 119.59 78.113 119.31 77.893 118.95L72.253 108.93H72.973V121.11C72.973 121.79 72.793 122.32 72.433 122.7C72.093 123.08 71.573 123.27 70.873 123.27ZM104.802 123.33C102.722 123.33 100.892 122.88 99.3123 121.98C97.7523 121.06 96.5323 119.78 95.6523 118.14C94.7923 116.5 94.3623 114.59 94.3623 112.41C94.3623 110.75 94.6023 109.26 95.0823 107.94C95.5823 106.6 96.2923 105.46 97.2123 104.52C98.1323 103.56 99.2323 102.82 100.512 102.3C101.812 101.78 103.242 101.52 104.802 101.52C106.922 101.52 108.762 101.97 110.322 102.87C111.882 103.77 113.092 105.04 113.952 106.68C114.832 108.3 115.272 110.2 115.272 112.38C115.272 114.04 115.022 115.54 114.522 116.88C114.022 118.22 113.312 119.37 112.392 120.33C111.472 121.29 110.372 122.03 109.092 122.55C107.812 123.07 106.382 123.33 104.802 123.33ZM104.802 119.37C105.982 119.37 106.982 119.1 107.802 118.56C108.642 118 109.282 117.2 109.722 116.16C110.182 115.1 110.412 113.85 110.412 112.41C110.412 110.21 109.922 108.51 108.942 107.31C107.962 106.09 106.582 105.48 104.802 105.48C103.642 105.48 102.642 105.75 101.802 106.29C100.962 106.83 100.322 107.62 99.8823 108.66C99.4423 109.7 99.2223 110.95 99.2223 112.41C99.2223 114.59 99.7123 116.3 100.692 117.54C101.672 118.76 103.042 119.37 104.802 119.37ZM121.029 123.27C120.329 123.27 119.789 123.08 119.409 122.7C119.049 122.3 118.869 121.74 118.869 121.02V103.92C118.869 103.16 119.049 102.58 119.409 102.18C119.789 101.78 120.289 101.58 120.909 101.58C121.449 101.58 121.859 101.69 122.139 101.91C122.439 102.11 122.779 102.45 123.159 102.93L133.689 116.34H132.879V103.8C132.879 103.1 133.059 102.56 133.419 102.18C133.799 101.78 134.339 101.58 135.039 101.58C135.739 101.58 136.269 101.78 136.629 102.18C137.009 102.56 137.199 103.1 137.199 103.8V121.11C137.199 121.77 137.029 122.3 136.689 122.7C136.349 123.08 135.889 123.27 135.309 123.27C134.749 123.27 134.299 123.16 133.959 122.94C133.639 122.72 133.289 122.37 132.909 121.89L122.409 108.48H123.189V121.02C123.189 121.74 123.009 122.3 122.649 122.7C122.289 123.08 121.749 123.27 121.029 123.27ZM143.887 123C143.107 123 142.507 122.79 142.087 122.37C141.667 121.95 141.457 121.35 141.457 120.57V104.28C141.457 103.5 141.667 102.9 142.087 102.48C142.507 102.06 143.107 101.85 143.887 101.85H154.357C154.957 101.85 155.407 102.01 155.707 102.33C156.027 102.63 156.187 103.07 156.187 103.65C156.187 104.25 156.027 104.71 155.707 105.03C155.407 105.33 154.957 105.48 154.357 105.48H145.897V110.43H153.667C154.287 110.43 154.747 110.59 155.047 110.91C155.367 111.21 155.527 111.66 155.527 112.26C155.527 112.86 155.367 113.32 155.047 113.64C154.747 113.94 154.287 114.09 153.667 114.09H145.897V119.37H154.357C154.957 119.37 155.407 119.53 155.707 119.85C156.027 120.15 156.187 120.59 156.187 121.17C156.187 121.77 156.027 122.23 155.707 122.55C155.407 122.85 154.957 123 154.357 123H143.887ZM166.971 123.27C166.211 123.27 165.631 123.06 165.231 122.64C164.831 122.22 164.631 121.62 164.631 120.84V112.14L165.591 114.81L158.511 104.76C158.231 104.34 158.111 103.89 158.151 103.41C158.191 102.91 158.391 102.48 158.751 102.12C159.111 101.76 159.621 101.58 160.281 101.58C160.761 101.58 161.191 101.7 161.571 101.94C161.971 102.18 162.351 102.56 162.711 103.08L167.511 110.01H166.551L171.351 103.08C171.731 102.54 172.101 102.16 172.461 101.94C172.841 101.7 173.281 101.58 173.781 101.58C174.421 101.58 174.921 101.75 175.281 102.09C175.641 102.41 175.831 102.82 175.851 103.32C175.871 103.8 175.701 104.3 175.341 104.82L168.351 114.81L169.281 112.14V120.84C169.281 122.46 168.511 123.27 166.971 123.27ZM33.4145 191.45C32.4145 191.45 31.6145 191.133 31.0145 190.5C30.4145 189.867 30.1145 189.017 30.1145 187.95V178.55L31.8145 179.6H28.4145C27.6145 179.6 26.9811 179.383 26.5145 178.95C26.0478 178.517 25.8145 177.933 25.8145 177.2C25.8145 176.467 26.0478 175.9 26.5145 175.5C26.9811 175.067 27.6145 174.85 28.4145 174.85H31.8145L30.1145 176.05V170.5L31.8145 171.7H28.4145C27.6145 171.7 26.9811 171.483 26.5145 171.05C26.0478 170.617 25.8145 170.033 25.8145 169.3C25.8145 168.567 26.0478 168 26.5145 167.6C26.9811 167.167 27.6145 166.95 28.4145 166.95H31.8145L30.1145 168.15V159C30.1145 157.867 30.4145 156.967 31.0145 156.3C31.6478 155.633 32.5311 155.3 33.6645 155.3C34.5645 155.3 35.3311 155.533 35.9645 156C36.6311 156.467 37.1478 157.25 37.5145 158.35L45.0145 178.95H43.3645V158.8C43.3645 157.733 43.6645 156.883 44.2645 156.25C44.8645 155.617 45.6811 155.3 46.7145 155.3C47.7145 155.3 48.5145 155.617 49.1145 156.25C49.7145 156.883 50.0145 157.733 50.0145 158.8V168.15L48.5145 166.95H51.7645C52.5645 166.95 53.1978 167.167 53.6645 167.6C54.1311 168 54.3645 168.567 54.3645 169.3C54.3645 170.033 54.1311 170.617 53.6645 171.05C53.1978 171.483 52.5645 171.7 51.7645 171.7H48.5145L50.0145 170.5V176.05L48.5145 174.85H51.7645C52.5645 174.85 53.1978 175.067 53.6645 175.5C54.1311 175.9 54.3645 176.467 54.3645 177.2C54.3645 177.933 54.1311 178.517 53.6645 178.95C53.1978 179.383 52.5645 179.6 51.7645 179.6H48.5145L50.0145 178.55V187.75C50.0145 188.883 49.6978 189.783 49.0645 190.45C48.4645 191.117 47.6311 191.45 46.5645 191.45C45.6311 191.45 44.8311 191.217 44.1645 190.75C43.5311 190.283 43.0145 189.5 42.6145 188.4L35.1145 167.8H36.7645V187.95C36.7645 189.017 36.4645 189.867 35.8645 190.5C35.2978 191.133 34.4811 191.45 33.4145 191.45ZM69.1949 191.55C67.4283 191.55 65.6283 191.35 63.7949 190.95C61.9949 190.517 60.4283 189.917 59.0949 189.15C58.2283 188.683 57.6283 188.133 57.2949 187.5C56.9949 186.833 56.8783 186.183 56.9449 185.55C57.0449 184.917 57.3116 184.367 57.7449 183.9C58.1783 183.4 58.7283 183.083 59.3949 182.95C60.0949 182.817 60.8616 182.95 61.6949 183.35C62.9949 183.983 64.2283 184.433 65.3949 184.7C66.5616 184.967 67.7283 185.1 68.8949 185.1C70.2283 185.1 71.3449 184.933 72.2449 184.6C73.1449 184.233 73.8283 183.717 74.2949 183.05C74.7616 182.383 74.9949 181.55 74.9949 180.55C74.9949 179.15 74.5116 178.1 73.5449 177.4C72.5783 176.7 71.1616 176.35 69.2949 176.35H66.3449C65.2449 176.35 64.3949 176.083 63.7949 175.55C63.2283 174.983 62.9449 174.217 62.9449 173.25C62.9449 172.25 63.2283 171.483 63.7949 170.95C64.3949 170.383 65.2449 170.1 66.3449 170.1H68.5449C69.6783 170.1 70.6283 169.933 71.3949 169.6C72.1949 169.233 72.8116 168.733 73.2449 168.1C73.7116 167.467 73.9449 166.683 73.9449 165.75C73.9449 164.417 73.4783 163.4 72.5449 162.7C71.6449 162 70.3283 161.65 68.5949 161.65C67.5283 161.65 66.4783 161.783 65.4449 162.05C64.4116 162.283 63.2949 162.717 62.0949 163.35C61.3616 163.717 60.6783 163.833 60.0449 163.7C59.4116 163.567 58.8783 163.267 58.4449 162.8C58.0449 162.333 57.7783 161.8 57.6449 161.2C57.5449 160.567 57.6283 159.933 57.8949 159.3C58.1949 158.667 58.7283 158.15 59.4949 157.75C60.9283 156.917 62.4783 156.283 64.1449 155.85C65.8449 155.417 67.5616 155.2 69.2949 155.2C71.8283 155.2 73.9949 155.583 75.7949 156.35C77.5949 157.117 78.9783 158.217 79.9449 159.65C80.9116 161.05 81.3949 162.75 81.3949 164.75C81.3949 166.117 81.1283 167.367 80.5949 168.5C80.0616 169.633 79.3116 170.6 78.3449 171.4C77.4116 172.167 76.2616 172.717 74.8949 173.05V172.4C77.2616 172.8 79.1116 173.783 80.4449 175.35C81.7783 176.917 82.4449 178.883 82.4449 181.25C82.4449 183.35 81.9116 185.183 80.8449 186.75C79.7783 188.283 78.2449 189.467 76.2449 190.3C74.2783 191.133 71.9283 191.55 69.1949 191.55ZM100.025 191.55C95.7587 191.55 92.4921 189.967 90.2254 186.8C87.9921 183.6 86.8754 179.083 86.8754 173.25C86.8754 169.35 87.3754 166.067 88.3754 163.4C89.4087 160.7 90.8921 158.667 92.8254 157.3C94.7921 155.9 97.1921 155.2 100.025 155.2C104.325 155.2 107.592 156.75 109.825 159.85C112.059 162.917 113.175 167.383 113.175 173.25C113.175 177.15 112.659 180.467 111.625 183.2C110.625 185.9 109.159 187.967 107.225 189.4C105.292 190.833 102.892 191.55 100.025 191.55ZM100.025 185.25C101.959 185.25 103.392 184.3 104.325 182.4C105.259 180.467 105.725 177.417 105.725 173.25C105.725 169.083 105.259 166.083 104.325 164.25C103.392 162.417 101.959 161.5 100.025 161.5C98.0921 161.5 96.6587 162.417 95.7254 164.25C94.7921 166.083 94.3254 169.083 94.3254 173.25C94.3254 177.417 94.7921 180.467 95.7254 182.4C96.6587 184.3 98.0921 185.25 100.025 185.25ZM122.556 196.7C122.056 197.3 121.523 197.633 120.956 197.7C120.389 197.8 119.906 197.7 119.506 197.4C119.106 197.1 118.873 196.667 118.806 196.1C118.773 195.567 119.023 194.983 119.556 194.35C120.289 193.417 120.789 192.5 121.056 191.6C121.323 190.7 121.456 189.9 121.456 189.2L121.706 191.25C120.373 191.25 119.289 190.867 118.456 190.1C117.623 189.333 117.206 188.283 117.206 186.95C117.206 185.717 117.589 184.717 118.356 183.95C119.123 183.15 120.173 182.75 121.506 182.75C122.873 182.75 123.939 183.217 124.706 184.15C125.473 185.05 125.856 186.333 125.856 188C125.856 188.867 125.773 189.75 125.606 190.65C125.439 191.55 125.123 192.5 124.656 193.5C124.189 194.5 123.489 195.567 122.556 196.7ZM142.994 191.55C138.727 191.55 135.461 189.967 133.194 186.8C130.961 183.6 129.844 179.083 129.844 173.25C129.844 169.35 130.344 166.067 131.344 163.4C132.377 160.7 133.861 158.667 135.794 157.3C137.761 155.9 140.161 155.2 142.994 155.2C147.294 155.2 150.561 156.75 152.794 159.85C155.027 162.917 156.144 167.383 156.144 173.25C156.144 177.15 155.627 180.467 154.594 183.2C153.594 185.9 152.127 187.967 150.194 189.4C148.261 190.833 145.861 191.55 142.994 191.55ZM142.994 185.25C144.927 185.25 146.361 184.3 147.294 182.4C148.227 180.467 148.694 177.417 148.694 173.25C148.694 169.083 148.227 166.083 147.294 164.25C146.361 162.417 144.927 161.5 142.994 161.5C141.061 161.5 139.627 162.417 138.694 164.25C137.761 166.083 137.294 169.083 137.294 173.25C137.294 177.417 137.761 180.467 138.694 182.4C139.627 184.3 141.061 185.25 142.994 185.25ZM172.975 191.55C168.708 191.55 165.441 189.967 163.175 186.8C160.941 183.6 159.825 179.083 159.825 173.25C159.825 169.35 160.325 166.067 161.325 163.4C162.358 160.7 163.841 158.667 165.775 157.3C167.741 155.9 170.141 155.2 172.975 155.2C177.275 155.2 180.541 156.75 182.775 159.85C185.008 162.917 186.125 167.383 186.125 173.25C186.125 177.15 185.608 180.467 184.575 183.2C183.575 185.9 182.108 187.967 180.175 189.4C178.241 190.833 175.841 191.55 172.975 191.55ZM172.975 185.25C174.908 185.25 176.341 184.3 177.275 182.4C178.208 180.467 178.675 177.417 178.675 173.25C178.675 169.083 178.208 166.083 177.275 164.25C176.341 162.417 174.908 161.5 172.975 161.5C171.041 161.5 169.608 162.417 168.675 164.25C167.741 166.083 167.275 169.083 167.275 173.25C167.275 177.417 167.741 180.467 168.675 182.4C169.608 184.3 171.041 185.25 172.975 185.25ZM202.955 191.55C198.688 191.55 195.422 189.967 193.155 186.8C190.922 183.6 189.805 179.083 189.805 173.25C189.805 169.35 190.305 166.067 191.305 163.4C192.338 160.7 193.822 158.667 195.755 157.3C197.722 155.9 200.122 155.2 202.955 155.2C207.255 155.2 210.522 156.75 212.755 159.85C214.988 162.917 216.105 167.383 216.105 173.25C216.105 177.15 215.588 180.467 214.555 183.2C213.555 185.9 212.088 187.967 210.155 189.4C208.222 190.833 205.822 191.55 202.955 191.55ZM202.955 185.25C204.888 185.25 206.322 184.3 207.255 182.4C208.188 180.467 208.655 177.417 208.655 173.25C208.655 169.083 208.188 166.083 207.255 164.25C206.322 162.417 204.888 161.5 202.955 161.5C201.022 161.5 199.588 162.417 198.655 164.25C197.722 166.083 197.255 169.083 197.255 173.25C197.255 177.417 197.722 180.467 198.655 182.4C199.588 184.3 201.022 185.25 202.955 185.25Z" fill="black"/>
<path d="M259.307 46C258.523 46 257.923 45.8 257.507 45.4C257.107 44.9833 256.907 44.3917 256.907 43.625V30.75C256.907 29.9833 257.107 29.4 257.507 29C257.923 28.5833 258.523 28.375 259.307 28.375H265.407C266.673 28.375 267.748 28.5667 268.632 28.95C269.532 29.3167 270.215 29.8417 270.682 30.525C271.148 31.2083 271.382 32.0083 271.382 32.925C271.382 33.9583 271.082 34.8417 270.482 35.575C269.898 36.3083 269.098 36.8083 268.082 37.075V36.675C269.282 36.8917 270.207 37.375 270.857 38.125C271.523 38.875 271.857 39.8333 271.857 41C271.857 42.55 271.298 43.775 270.182 44.675C269.082 45.5583 267.573 46 265.657 46H259.307ZM261.307 42.625H265.032C265.882 42.625 266.498 42.4667 266.882 42.15C267.282 41.8167 267.482 41.325 267.482 40.675C267.482 40.025 267.282 39.5417 266.882 39.225C266.498 38.9083 265.882 38.75 265.032 38.75H261.307V42.625ZM261.307 35.375H264.582C265.415 35.375 266.023 35.225 266.407 34.925C266.807 34.625 267.007 34.1667 267.007 33.55C267.007 32.9333 266.807 32.4833 266.407 32.2C266.023 31.9 265.415 31.75 264.582 31.75H261.307V35.375ZM276.86 46C276.077 46 275.477 45.8 275.06 45.4C274.66 44.9833 274.46 44.3917 274.46 43.625V30.75C274.46 29.9833 274.66 29.4 275.06 29C275.477 28.5833 276.077 28.375 276.86 28.375H285.335C285.935 28.375 286.385 28.525 286.685 28.825C286.985 29.125 287.135 29.5583 287.135 30.125C287.135 30.7083 286.985 31.1583 286.685 31.475C286.385 31.775 285.935 31.925 285.335 31.925H278.86V35.275H284.785C285.369 35.275 285.81 35.425 286.11 35.725C286.427 36.025 286.585 36.4667 286.585 37.05C286.585 37.6333 286.427 38.075 286.11 38.375C285.81 38.675 285.369 38.825 284.785 38.825H278.86V42.45H285.335C285.935 42.45 286.385 42.6083 286.685 42.925C286.985 43.225 287.135 43.6583 287.135 44.225C287.135 44.8083 286.985 45.25 286.685 45.55C286.385 45.85 285.935 46 285.335 46H276.86ZM296.389 46.225C295.656 46.225 295.089 46.025 294.689 45.625C294.289 45.2083 294.089 44.6333 294.089 43.9V32.125H290.164C289.547 32.125 289.072 31.9667 288.739 31.65C288.422 31.3167 288.264 30.85 288.264 30.25C288.264 29.6333 288.422 29.1667 288.739 28.85C289.072 28.5333 289.547 28.375 290.164 28.375H302.614C303.231 28.375 303.697 28.5333 304.014 28.85C304.347 29.1667 304.514 29.6333 304.514 30.25C304.514 30.85 304.347 31.3167 304.014 31.65C303.697 31.9667 303.231 32.125 302.614 32.125H298.689V43.9C298.689 44.6333 298.497 45.2083 298.114 45.625C297.731 46.025 297.156 46.225 296.389 46.225ZM355.498 46.275C354.831 46.275 354.131 46.225 353.398 46.125C352.681 46.0417 351.998 45.9083 351.348 45.725C350.698 45.5417 350.114 45.325 349.598 45.075C349.148 44.8583 348.831 44.575 348.648 44.225C348.464 43.8583 348.398 43.475 348.448 43.075C348.498 42.675 348.639 42.325 348.873 42.025C349.106 41.7083 349.414 41.5 349.798 41.4C350.181 41.2833 350.614 41.3333 351.098 41.55C351.731 41.85 352.448 42.0833 353.248 42.25C354.048 42.4167 354.798 42.5 355.498 42.5C356.598 42.5 357.364 42.3583 357.798 42.075C358.248 41.775 358.473 41.4083 358.473 40.975C358.473 40.5917 358.314 40.2833 357.998 40.05C357.698 39.8167 357.156 39.6167 356.373 39.45L353.448 38.825C351.848 38.4917 350.656 37.9083 349.873 37.075C349.089 36.2417 348.698 35.1667 348.698 33.85C348.698 32.9833 348.873 32.2 349.223 31.5C349.589 30.7833 350.098 30.175 350.748 29.675C351.414 29.175 352.198 28.7917 353.098 28.525C354.014 28.2417 355.031 28.1 356.148 28.1C357.014 28.1 357.889 28.2 358.773 28.4C359.673 28.5833 360.448 28.8667 361.098 29.25C361.481 29.45 361.756 29.725 361.923 30.075C362.089 30.425 362.156 30.7917 362.123 31.175C362.089 31.5417 361.956 31.8667 361.723 32.15C361.506 32.4333 361.206 32.625 360.823 32.725C360.456 32.8083 360.014 32.7417 359.498 32.525C359.014 32.3083 358.464 32.15 357.848 32.05C357.248 31.9333 356.664 31.875 356.098 31.875C355.481 31.875 354.956 31.95 354.523 32.1C354.089 32.2333 353.756 32.4333 353.523 32.7C353.306 32.9667 353.198 33.275 353.198 33.625C353.198 33.975 353.339 34.275 353.623 34.525C353.923 34.7583 354.464 34.9583 355.248 35.125L358.148 35.75C359.764 36.1 360.973 36.675 361.773 37.475C362.573 38.275 362.973 39.3167 362.973 40.6C362.973 41.4667 362.798 42.25 362.448 42.95C362.098 43.65 361.598 44.25 360.948 44.75C360.298 45.2333 359.514 45.6083 358.598 45.875C357.681 46.1417 356.648 46.275 355.498 46.275ZM371.316 46.225C370.582 46.225 370.016 46.025 369.616 45.625C369.216 45.2083 369.016 44.6333 369.016 43.9V32.125H365.091C364.474 32.125 363.999 31.9667 363.666 31.65C363.349 31.3167 363.191 30.85 363.191 30.25C363.191 29.6333 363.349 29.1667 363.666 28.85C363.999 28.5333 364.474 28.375 365.091 28.375H377.541C378.157 28.375 378.624 28.5333 378.941 28.85C379.274 29.1667 379.441 29.6333 379.441 30.25C379.441 30.85 379.274 31.3167 378.941 31.65C378.624 31.9667 378.157 32.125 377.541 32.125H373.616V43.9C373.616 44.6333 373.424 45.2083 373.041 45.625C372.657 46.025 372.082 46.225 371.316 46.225ZM379.802 46.225C379.285 46.225 378.852 46.1083 378.502 45.875C378.152 45.625 377.935 45.2917 377.852 44.875C377.769 44.4417 377.844 43.9583 378.077 43.425L384.302 30.025C384.602 29.375 384.969 28.9 385.402 28.6C385.852 28.3 386.36 28.15 386.927 28.15C387.494 28.15 387.985 28.3 388.402 28.6C388.835 28.9 389.21 29.375 389.527 30.025L395.752 43.425C396.019 43.9583 396.11 44.4417 396.027 44.875C395.96 45.3083 395.752 45.6417 395.402 45.875C395.069 46.1083 394.652 46.225 394.152 46.225C393.485 46.225 392.969 46.075 392.602 45.775C392.252 45.475 391.935 44.9917 391.652 44.325L390.302 41.15L392.052 42.425H381.752L383.527 41.15L382.177 44.325C381.877 44.9917 381.569 45.475 381.252 45.775C380.935 46.075 380.452 46.225 379.802 46.225ZM386.877 33.175L383.977 40.1L383.277 38.9H390.552L389.852 40.1L386.927 33.175H386.877ZM400.344 46.225C399.611 46.225 399.044 46.025 398.644 45.625C398.244 45.2083 398.044 44.6333 398.044 43.9V30.475C398.044 29.7083 398.244 29.1333 398.644 28.75C399.044 28.35 399.611 28.15 400.344 28.15C401.094 28.15 401.661 28.35 402.044 28.75C402.444 29.1333 402.644 29.7083 402.644 30.475V35.925H402.694L408.769 29.225C409.086 28.8917 409.419 28.6333 409.769 28.45C410.136 28.25 410.544 28.15 410.994 28.15C411.694 28.15 412.194 28.3333 412.494 28.7C412.811 29.05 412.953 29.4667 412.919 29.95C412.903 30.4167 412.711 30.85 412.344 31.25L406.294 37.675V35.8L412.644 42.975C413.078 43.4583 413.294 43.9583 413.294 44.475C413.294 44.975 413.119 45.3917 412.769 45.725C412.436 46.0583 411.936 46.225 411.269 46.225C410.703 46.225 410.244 46.1167 409.894 45.9C409.561 45.6667 409.194 45.325 408.794 44.875L402.694 38.05H402.644V43.9C402.644 44.6333 402.453 45.2083 402.069 45.625C401.686 46.025 401.111 46.225 400.344 46.225ZM418.242 46C417.459 46 416.859 45.8 416.442 45.4C416.042 44.9833 415.842 44.3917 415.842 43.625V30.75C415.842 29.9833 416.042 29.4 416.442 29C416.859 28.5833 417.459 28.375 418.242 28.375H426.717C427.317 28.375 427.767 28.525 428.067 28.825C428.367 29.125 428.517 29.5583 428.517 30.125C428.517 30.7083 428.367 31.1583 428.067 31.475C427.767 31.775 427.317 31.925 426.717 31.925H420.242V35.275H426.167C426.751 35.275 427.192 35.425 427.492 35.725C427.809 36.025 427.967 36.4667 427.967 37.05C427.967 37.6333 427.809 38.075 427.492 38.375C427.192 38.675 426.751 38.825 426.167 38.825H420.242V42.45H426.717C427.317 42.45 427.767 42.6083 428.067 42.925C428.367 43.225 428.517 43.6583 428.517 44.225C428.517 44.8083 428.367 45.25 428.067 45.55C427.767 45.85 427.317 46 426.717 46H418.242ZM468.312 46.275C466.529 46.275 464.962 45.9 463.612 45.15C462.262 44.3833 461.212 43.3167 460.462 41.95C459.729 40.5833 459.362 38.9917 459.362 37.175C459.362 35.8083 459.57 34.5667 459.987 33.45C460.42 32.3333 461.029 31.375 461.812 30.575C462.612 29.775 463.562 29.1667 464.662 28.75C465.762 28.3167 466.979 28.1 468.312 28.1C470.095 28.1 471.654 28.475 472.987 29.225C474.337 29.975 475.387 31.0333 476.137 32.4C476.887 33.75 477.262 35.3417 477.262 37.175C477.262 38.5417 477.045 39.7833 476.612 40.9C476.195 42.0167 475.587 42.9833 474.787 43.8C474.004 44.6 473.062 45.2167 471.962 45.65C470.862 46.0667 469.645 46.275 468.312 46.275ZM468.312 42.425C469.195 42.425 469.945 42.2167 470.562 41.8C471.179 41.3833 471.654 40.7833 471.987 40C472.32 39.2167 472.487 38.275 472.487 37.175C472.487 35.525 472.12 34.2417 471.387 33.325C470.654 32.4083 469.629 31.95 468.312 31.95C467.445 31.95 466.695 32.1583 466.062 32.575C465.445 32.975 464.97 33.5667 464.637 34.35C464.304 35.1167 464.137 36.0583 464.137 37.175C464.137 38.825 464.504 40.1167 465.237 41.05C465.97 41.9667 466.995 42.425 468.312 42.425ZM482.378 46C481.595 46 480.995 45.8 480.578 45.4C480.178 44.9833 479.978 44.3917 479.978 43.625V30.75C479.978 29.9833 480.178 29.4 480.578 29C480.995 28.5833 481.595 28.375 482.378 28.375H487.278C490.345 28.375 492.711 29.1417 494.378 30.675C496.061 32.2083 496.903 34.375 496.903 37.175C496.903 38.575 496.686 39.825 496.253 40.925C495.82 42.0083 495.195 42.9333 494.378 43.7C493.561 44.45 492.553 45.025 491.353 45.425C490.17 45.8083 488.811 46 487.278 46H482.378ZM484.578 42.275H486.978C487.861 42.275 488.62 42.1667 489.253 41.95C489.903 41.7333 490.436 41.4167 490.853 41C491.286 40.5833 491.603 40.0583 491.803 39.425C492.02 38.7917 492.128 38.0417 492.128 37.175C492.128 35.4417 491.703 34.1667 490.853 33.35C490.003 32.5167 488.711 32.1 486.978 32.1H484.578V42.275ZM502.031 46C501.248 46 500.648 45.8 500.231 45.4C499.831 44.9833 499.631 44.3917 499.631 43.625V30.75C499.631 29.9833 499.831 29.4 500.231 29C500.648 28.5833 501.248 28.375 502.031 28.375H506.931C509.998 28.375 512.365 29.1417 514.031 30.675C515.715 32.2083 516.556 34.375 516.556 37.175C516.556 38.575 516.34 39.825 515.906 40.925C515.473 42.0083 514.848 42.9333 514.031 43.7C513.215 44.45 512.206 45.025 511.006 45.425C509.823 45.8083 508.465 46 506.931 46H502.031ZM504.231 42.275H506.631C507.515 42.275 508.273 42.1667 508.906 41.95C509.556 41.7333 510.09 41.4167 510.506 41C510.94 40.5833 511.256 40.0583 511.456 39.425C511.673 38.7917 511.781 38.0417 511.781 37.175C511.781 35.4417 511.356 34.1667 510.506 33.35C509.656 32.5167 508.365 32.1 506.631 32.1H504.231V42.275ZM525.835 46.275C525.168 46.275 524.468 46.225 523.735 46.125C523.018 46.0417 522.335 45.9083 521.685 45.725C521.035 45.5417 520.451 45.325 519.935 45.075C519.485 44.8583 519.168 44.575 518.985 44.225C518.801 43.8583 518.735 43.475 518.785 43.075C518.835 42.675 518.976 42.325 519.21 42.025C519.443 41.7083 519.751 41.5 520.135 41.4C520.518 41.2833 520.951 41.3333 521.435 41.55C522.068 41.85 522.785 42.0833 523.585 42.25C524.385 42.4167 525.135 42.5 525.835 42.5C526.935 42.5 527.701 42.3583 528.135 42.075C528.585 41.775 528.81 41.4083 528.81 40.975C528.81 40.5917 528.651 40.2833 528.335 40.05C528.035 39.8167 527.493 39.6167 526.71 39.45L523.785 38.825C522.185 38.4917 520.993 37.9083 520.21 37.075C519.426 36.2417 519.035 35.1667 519.035 33.85C519.035 32.9833 519.21 32.2 519.56 31.5C519.926 30.7833 520.435 30.175 521.085 29.675C521.751 29.175 522.535 28.7917 523.435 28.525C524.351 28.2417 525.368 28.1 526.485 28.1C527.351 28.1 528.226 28.2 529.11 28.4C530.01 28.5833 530.785 28.8667 531.435 29.25C531.818 29.45 532.093 29.725 532.26 30.075C532.426 30.425 532.493 30.7917 532.46 31.175C532.426 31.5417 532.293 31.8667 532.06 32.15C531.843 32.4333 531.543 32.625 531.16 32.725C530.793 32.8083 530.351 32.7417 529.835 32.525C529.351 32.3083 528.801 32.15 528.185 32.05C527.585 31.9333 527.001 31.875 526.435 31.875C525.818 31.875 525.293 31.95 524.86 32.1C524.426 32.2333 524.093 32.4333 523.86 32.7C523.643 32.9667 523.535 33.275 523.535 33.625C523.535 33.975 523.676 34.275 523.96 34.525C524.26 34.7583 524.801 34.9583 525.585 35.125L528.485 35.75C530.101 36.1 531.31 36.675 532.11 37.475C532.91 38.275 533.31 39.3167 533.31 40.6C533.31 41.4667 533.135 42.25 532.785 42.95C532.435 43.65 531.935 44.25 531.285 44.75C530.635 45.2333 529.851 45.6083 528.935 45.875C528.018 46.1417 526.985 46.275 525.835 46.275ZM578.185 46.225C577.569 46.225 577.069 46.0833 576.685 45.8C576.302 45.5 576.002 45.0417 575.785 44.425L570.91 30.85C570.644 30.1 570.685 29.4667 571.035 28.95C571.402 28.4167 572.044 28.15 572.96 28.15C573.577 28.15 574.06 28.3 574.41 28.6C574.76 28.8833 575.035 29.3333 575.235 29.95L578.96 41.125H577.785L581.785 29.95C582.019 29.3333 582.31 28.8833 582.66 28.6C583.01 28.3 583.46 28.15 584.01 28.15C584.56 28.15 585.002 28.3 585.335 28.6C585.669 28.8833 585.944 29.3417 586.16 29.975L589.91 41.125H588.91L592.735 29.95C592.935 29.3333 593.202 28.8833 593.535 28.6C593.885 28.3 594.369 28.15 594.985 28.15C595.752 28.15 596.31 28.4167 596.66 28.95C597.027 29.4667 597.069 30.1 596.785 30.85L591.86 44.45C591.644 45.05 591.344 45.5 590.96 45.8C590.594 46.0833 590.102 46.225 589.485 46.225C588.852 46.225 588.344 46.0833 587.96 45.8C587.594 45.5 587.302 45.0417 587.085 44.425L583.56 34.525H584.185L580.585 44.45C580.352 45.05 580.052 45.5 579.685 45.8C579.319 46.0833 578.819 46.225 578.185 46.225ZM601.834 46.225C601.1 46.225 600.534 46.025 600.134 45.625C599.734 45.2083 599.534 44.625 599.534 43.875V30.5C599.534 29.7333 599.734 29.15 600.134 28.75C600.534 28.35 601.1 28.15 601.834 28.15C602.584 28.15 603.15 28.35 603.534 28.75C603.934 29.15 604.134 29.7333 604.134 30.5V43.875C604.134 44.625 603.942 45.2083 603.559 45.625C603.175 46.025 602.6 46.225 601.834 46.225ZM609.472 46.225C608.772 46.225 608.238 46.0417 607.872 45.675C607.505 45.3083 607.322 44.7667 607.322 44.05V30.425C607.322 29.6917 607.505 29.1333 607.872 28.75C608.238 28.35 608.722 28.15 609.322 28.15C609.855 28.15 610.272 28.25 610.572 28.45C610.872 28.65 611.205 28.9833 611.572 29.45L619.497 39.35H618.797V30.3C618.797 29.6 618.972 29.0667 619.322 28.7C619.688 28.3333 620.222 28.15 620.922 28.15C621.622 28.15 622.147 28.3333 622.497 28.7C622.863 29.0667 623.047 29.6 623.047 30.3V44.15C623.047 44.7833 622.88 45.2917 622.547 45.675C622.213 46.0417 621.763 46.225 621.197 46.225C620.63 46.225 620.18 46.125 619.847 45.925C619.53 45.7083 619.188 45.375 618.822 44.925L610.897 35H611.597V44.05C611.597 44.7667 611.413 45.3083 611.047 45.675C610.697 46.0417 610.172 46.225 609.472 46.225ZM697.197 46.275C696.53 46.275 695.83 46.225 695.097 46.125C694.38 46.0417 693.697 45.9083 693.047 45.725C692.397 45.5417 691.814 45.325 691.297 45.075C690.847 44.8583 690.53 44.575 690.347 44.225C690.164 43.8583 690.097 43.475 690.147 43.075C690.197 42.675 690.339 42.325 690.572 42.025C690.805 41.7083 691.114 41.5 691.497 41.4C691.88 41.2833 692.314 41.3333 692.797 41.55C693.43 41.85 694.147 42.0833 694.947 42.25C695.747 42.4167 696.497 42.5 697.197 42.5C698.297 42.5 699.064 42.3583 699.497 42.075C699.947 41.775 700.172 41.4083 700.172 40.975C700.172 40.5917 700.014 40.2833 699.697 40.05C699.397 39.8167 698.855 39.6167 698.072 39.45L695.147 38.825C693.547 38.4917 692.355 37.9083 691.572 37.075C690.789 36.2417 690.397 35.1667 690.397 33.85C690.397 32.9833 690.572 32.2 690.922 31.5C691.289 30.7833 691.797 30.175 692.447 29.675C693.114 29.175 693.897 28.7917 694.797 28.525C695.714 28.2417 696.73 28.1 697.847 28.1C698.714 28.1 699.589 28.2 700.472 28.4C701.372 28.5833 702.147 28.8667 702.797 29.25C703.18 29.45 703.455 29.725 703.622 30.075C703.789 30.425 703.855 30.7917 703.822 31.175C703.789 31.5417 703.655 31.8667 703.422 32.15C703.205 32.4333 702.905 32.625 702.522 32.725C702.155 32.8083 701.714 32.7417 701.197 32.525C700.714 32.3083 700.164 32.15 699.547 32.05C698.947 31.9333 698.364 31.875 697.797 31.875C697.18 31.875 696.655 31.95 696.222 32.1C695.789 32.2333 695.455 32.4333 695.222 32.7C695.005 32.9667 694.897 33.275 694.897 33.625C694.897 33.975 695.039 34.275 695.322 34.525C695.622 34.7583 696.164 34.9583 696.947 35.125L699.847 35.75C701.464 36.1 702.672 36.675 703.472 37.475C704.272 38.275 704.672 39.3167 704.672 40.6C704.672 41.4667 704.497 42.25 704.147 42.95C703.797 43.65 703.297 44.25 702.647 44.75C701.997 45.2333 701.214 45.6083 700.297 45.875C699.38 46.1417 698.347 46.275 697.197 46.275ZM713.015 46.225C712.282 46.225 711.715 46.025 711.315 45.625C710.915 45.2083 710.715 44.6333 710.715 43.9V32.125H706.79C706.173 32.125 705.698 31.9667 705.365 31.65C705.048 31.3167 704.89 30.85 704.89 30.25C704.89 29.6333 705.048 29.1667 705.365 28.85C705.698 28.5333 706.173 28.375 706.79 28.375H719.24C719.857 28.375 720.323 28.5333 720.64 28.85C720.973 29.1667 721.14 29.6333 721.14 30.25C721.14 30.85 720.973 31.3167 720.64 31.65C720.323 31.9667 719.857 32.125 719.24 32.125H715.315V43.9C715.315 44.6333 715.123 45.2083 714.74 45.625C714.357 46.025 713.782 46.225 713.015 46.225ZM721.501 46.225C720.985 46.225 720.551 46.1083 720.201 45.875C719.851 45.625 719.635 45.2917 719.551 44.875C719.468 44.4417 719.543 43.9583 719.776 43.425L726.001 30.025C726.301 29.375 726.668 28.9 727.101 28.6C727.551 28.3 728.06 28.15 728.626 28.15C729.193 28.15 729.685 28.3 730.101 28.6C730.535 28.9 730.91 29.375 731.226 30.025L737.451 43.425C737.718 43.9583 737.81 44.4417 737.726 44.875C737.66 45.3083 737.451 45.6417 737.101 45.875C736.768 46.1083 736.351 46.225 735.851 46.225C735.185 46.225 734.668 46.075 734.301 45.775C733.951 45.475 733.635 44.9917 733.351 44.325L732.001 41.15L733.751 42.425H723.451L725.226 41.15L723.876 44.325C723.576 44.9917 723.268 45.475 722.951 45.775C722.635 46.075 722.151 46.225 721.501 46.225ZM728.576 33.175L725.676 40.1L724.976 38.9H732.251L731.551 40.1L728.626 33.175H728.576ZM744.216 46.225C743.483 46.225 742.916 46.025 742.516 45.625C742.116 45.2083 741.916 44.6333 741.916 43.9V32.125H737.991C737.374 32.125 736.899 31.9667 736.566 31.65C736.249 31.3167 736.091 30.85 736.091 30.25C736.091 29.6333 736.249 29.1667 736.566 28.85C736.899 28.5333 737.374 28.375 737.991 28.375H750.441C751.058 28.375 751.524 28.5333 751.841 28.85C752.174 29.1667 752.341 29.6333 752.341 30.25C752.341 30.85 752.174 31.3167 751.841 31.65C751.524 31.9667 751.058 32.125 750.441 32.125H746.516V43.9C746.516 44.6333 746.324 45.2083 745.941 45.625C745.558 46.025 744.983 46.225 744.216 46.225ZM761.655 46.275C760.372 46.275 759.238 46.1167 758.255 45.8C757.272 45.4667 756.438 44.975 755.755 44.325C755.088 43.675 754.58 42.8667 754.23 41.9C753.897 40.9167 753.73 39.7833 753.73 38.5V30.475C753.73 29.7083 753.93 29.1333 754.33 28.75C754.73 28.35 755.297 28.15 756.03 28.15C756.78 28.15 757.347 28.35 757.73 28.75C758.13 29.1333 758.33 29.7083 758.33 30.475V38.55C758.33 39.8333 758.613 40.8 759.18 41.45C759.747 42.1 760.572 42.425 761.655 42.425C762.722 42.425 763.538 42.1 764.105 41.45C764.672 40.8 764.955 39.8333 764.955 38.55V30.475C764.955 29.7083 765.147 29.1333 765.53 28.75C765.93 28.35 766.497 28.15 767.23 28.15C767.963 28.15 768.522 28.35 768.905 28.75C769.288 29.1333 769.48 29.7083 769.48 30.475V38.5C769.48 40.2167 769.18 41.6583 768.58 42.825C767.997 43.975 767.122 44.8417 765.955 45.425C764.788 45.9917 763.355 46.275 761.655 46.275ZM779.106 46.275C778.439 46.275 777.739 46.225 777.006 46.125C776.289 46.0417 775.606 45.9083 774.956 45.725C774.306 45.5417 773.723 45.325 773.206 45.075C772.756 44.8583 772.439 44.575 772.256 44.225C772.073 43.8583 772.006 43.475 772.056 43.075C772.106 42.675 772.248 42.325 772.481 42.025C772.714 41.7083 773.023 41.5 773.406 41.4C773.789 41.2833 774.223 41.3333 774.706 41.55C775.339 41.85 776.056 42.0833 776.856 42.25C777.656 42.4167 778.406 42.5 779.106 42.5C780.206 42.5 780.973 42.3583 781.406 42.075C781.856 41.775 782.081 41.4083 782.081 40.975C782.081 40.5917 781.923 40.2833 781.606 40.05C781.306 39.8167 780.764 39.6167 779.981 39.45L777.056 38.825C775.456 38.4917 774.264 37.9083 773.481 37.075C772.698 36.2417 772.306 35.1667 772.306 33.85C772.306 32.9833 772.481 32.2 772.831 31.5C773.198 30.7833 773.706 30.175 774.356 29.675C775.023 29.175 775.806 28.7917 776.706 28.525C777.623 28.2417 778.639 28.1 779.756 28.1C780.623 28.1 781.498 28.2 782.381 28.4C783.281 28.5833 784.056 28.8667 784.706 29.25C785.089 29.45 785.364 29.725 785.531 30.075C785.698 30.425 785.764 30.7917 785.731 31.175C785.698 31.5417 785.564 31.8667 785.331 32.15C785.114 32.4333 784.814 32.625 784.431 32.725C784.064 32.8083 783.623 32.7417 783.106 32.525C782.623 32.3083 782.073 32.15 781.456 32.05C780.856 31.9333 780.273 31.875 779.706 31.875C779.089 31.875 778.564 31.95 778.131 32.1C777.698 32.2333 777.364 32.4333 777.131 32.7C776.914 32.9667 776.806 33.275 776.806 33.625C776.806 33.975 776.948 34.275 777.231 34.525C777.531 34.7583 778.073 34.9583 778.856 35.125L781.756 35.75C783.373 36.1 784.581 36.675 785.381 37.475C786.181 38.275 786.581 39.3167 786.581 40.6C786.581 41.4667 786.406 42.25 786.056 42.95C785.706 43.65 785.206 44.25 784.556 44.75C783.906 45.2333 783.123 45.6083 782.206 45.875C781.289 46.1417 780.256 46.275 779.106 46.275ZM278.836 100C278.402 100 278.061 99.8833 277.811 99.65C277.577 99.4 277.461 99.0667 277.461 98.65C277.461 98.2167 277.577 97.8917 277.811 97.675C278.061 97.4583 278.402 97.35 278.836 97.35H281.636V85.075H283.186L279.511 87.3C279.194 87.4833 278.894 87.5583 278.611 87.525C278.344 87.475 278.111 87.3583 277.911 87.175C277.727 86.975 277.602 86.7417 277.536 86.475C277.469 86.2083 277.486 85.9417 277.586 85.675C277.702 85.3917 277.919 85.1583 278.236 84.975L281.686 82.9C282.019 82.7 282.352 82.5333 282.686 82.4C283.019 82.25 283.327 82.175 283.611 82.175C283.961 82.175 284.252 82.275 284.486 82.475C284.719 82.6583 284.836 82.9667 284.836 83.4V97.35H287.386C287.819 97.35 288.152 97.4583 288.386 97.675C288.636 97.8917 288.761 98.2167 288.761 98.65C288.761 99.0833 288.636 99.4167 288.386 99.65C288.152 99.8833 287.819 100 287.386 100H278.836ZM341.486 100.2C341.019 100.2 340.661 100.067 340.411 99.8C340.161 99.5333 340.036 99.15 340.036 98.65V93.75L340.736 94.2H338.911C338.527 94.2 338.227 94.1083 338.011 93.925C337.811 93.725 337.711 93.45 337.711 93.1C337.711 92.75 337.811 92.4833 338.011 92.3C338.227 92.1 338.527 92 338.911 92H340.736L340.036 92.45V89.85L340.736 90.3H338.911C338.527 90.3 338.227 90.2083 338.011 90.025C337.811 89.825 337.711 89.55 337.711 89.2C337.711 88.85 337.811 88.5833 338.011 88.4C338.227 88.2 338.527 88.1 338.911 88.1H340.736L340.036 88.55V83.875C340.036 83.325 340.161 82.9083 340.411 82.625C340.677 82.325 341.052 82.175 341.536 82.175C341.936 82.175 342.286 82.2833 342.586 82.5C342.902 82.7167 343.144 83.05 343.311 83.5L347.786 94.725H346.936V83.725C346.936 83.225 347.061 82.8417 347.311 82.575C347.561 82.3083 347.919 82.175 348.386 82.175C348.852 82.175 349.211 82.3083 349.461 82.575C349.711 82.8417 349.836 83.225 349.836 83.725V88.55L349.136 88.1H350.986C351.369 88.1 351.661 88.2 351.861 88.4C352.077 88.5833 352.186 88.85 352.186 89.2C352.186 89.55 352.077 89.825 351.861 90.025C351.661 90.2083 351.369 90.3 350.986 90.3H349.136L349.836 89.85V92.45L349.136 92H350.986C351.369 92 351.661 92.1 351.861 92.3C352.077 92.4833 352.186 92.75 352.186 93.1C352.186 93.45 352.077 93.725 351.861 93.925C351.661 94.1083 351.369 94.2 350.986 94.2H349.136L349.836 93.75V98.5C349.836 99.05 349.702 99.475 349.436 99.775C349.186 100.058 348.819 100.2 348.336 100.2C347.936 100.2 347.586 100.092 347.286 99.875C346.986 99.6583 346.744 99.325 346.561 98.875L342.086 87.675H342.936V98.65C342.936 99.15 342.811 99.5333 342.561 99.8C342.327 100.067 341.969 100.2 341.486 100.2ZM356.326 100C355.892 100 355.551 99.8833 355.301 99.65C355.067 99.4 354.951 99.0667 354.951 98.65C354.951 98.2167 355.067 97.8917 355.301 97.675C355.551 97.4583 355.892 97.35 356.326 97.35H359.126V85.075H360.676L357.001 87.3C356.684 87.4833 356.384 87.5583 356.101 87.525C355.834 87.475 355.601 87.3583 355.401 87.175C355.217 86.975 355.092 86.7417 355.026 86.475C354.959 86.2083 354.976 85.9417 355.076 85.675C355.192 85.3917 355.409 85.1583 355.726 84.975L359.176 82.9C359.509 82.7 359.842 82.5333 360.176 82.4C360.509 82.25 360.817 82.175 361.101 82.175C361.451 82.175 361.742 82.275 361.976 82.475C362.209 82.6583 362.326 82.9667 362.326 83.4V97.35H364.876C365.309 97.35 365.642 97.4583 365.876 97.675C366.126 97.8917 366.251 98.2167 366.251 98.65C366.251 99.0833 366.126 99.4167 365.876 99.65C365.642 99.8833 365.309 100 364.876 100H356.326ZM374.916 100.25C372.833 100.25 371.241 99.4667 370.141 97.9C369.041 96.3167 368.491 94.0667 368.491 91.15C368.491 89.1833 368.733 87.5333 369.216 86.2C369.716 84.85 370.441 83.8333 371.391 83.15C372.358 82.4667 373.533 82.125 374.916 82.125C377.016 82.125 378.608 82.8917 379.691 84.425C380.791 85.9583 381.341 88.1917 381.341 91.125C381.341 93.075 381.091 94.7333 380.591 96.1C380.108 97.45 379.391 98.4833 378.441 99.2C377.491 99.9 376.316 100.25 374.916 100.25ZM374.916 97.625C376.049 97.625 376.883 97.1 377.416 96.05C377.966 95 378.241 93.3583 378.241 91.125C378.241 88.8917 377.966 87.275 377.416 86.275C376.883 85.2583 376.049 84.75 374.916 84.75C373.799 84.75 372.966 85.2583 372.416 86.275C371.866 87.275 371.591 88.8917 371.591 91.125C371.591 93.3583 371.866 95 372.416 96.05C372.966 97.1 373.799 97.625 374.916 97.625ZM385.931 102.675C385.715 102.942 385.481 103.092 385.231 103.125C384.998 103.175 384.79 103.133 384.606 103C384.423 102.867 384.323 102.675 384.306 102.425C384.29 102.192 384.398 101.933 384.631 101.65C384.965 101.233 385.19 100.817 385.306 100.4C385.423 99.9833 385.481 99.6083 385.481 99.275L385.606 100.125C385.023 100.125 384.548 99.9583 384.181 99.625C383.831 99.275 383.656 98.8167 383.656 98.25C383.656 97.7167 383.823 97.2833 384.156 96.95C384.49 96.6 384.94 96.425 385.506 96.425C386.09 96.425 386.548 96.625 386.881 97.025C387.215 97.4083 387.381 97.9667 387.381 98.7C387.381 99.1 387.34 99.5167 387.256 99.95C387.19 100.367 387.048 100.8 386.831 101.25C386.631 101.717 386.331 102.192 385.931 102.675ZM396.107 100.25C394.024 100.25 392.432 99.4667 391.332 97.9C390.232 96.3167 389.682 94.0667 389.682 91.15C389.682 89.1833 389.924 87.5333 390.407 86.2C390.907 84.85 391.632 83.8333 392.582 83.15C393.549 82.4667 394.724 82.125 396.107 82.125C398.207 82.125 399.799 82.8917 400.882 84.425C401.982 85.9583 402.532 88.1917 402.532 91.125C402.532 93.075 402.282 94.7333 401.782 96.1C401.299 97.45 400.582 98.4833 399.632 99.2C398.682 99.9 397.507 100.25 396.107 100.25ZM396.107 97.625C397.241 97.625 398.074 97.1 398.607 96.05C399.157 95 399.432 93.3583 399.432 91.125C399.432 88.8917 399.157 87.275 398.607 86.275C398.074 85.2583 397.241 84.75 396.107 84.75C394.991 84.75 394.157 85.2583 393.607 86.275C393.057 87.275 392.782 88.8917 392.782 91.125C392.782 93.3583 393.057 95 393.607 96.05C394.157 97.1 394.991 97.625 396.107 97.625ZM411.098 100.25C409.014 100.25 407.423 99.4667 406.323 97.9C405.223 96.3167 404.673 94.0667 404.673 91.15C404.673 89.1833 404.914 87.5333 405.398 86.2C405.898 84.85 406.623 83.8333 407.573 83.15C408.539 82.4667 409.714 82.125 411.098 82.125C413.198 82.125 414.789 82.8917 415.873 84.425C416.973 85.9583 417.523 88.1917 417.523 91.125C417.523 93.075 417.273 94.7333 416.773 96.1C416.289 97.45 415.573 98.4833 414.623 99.2C413.673 99.9 412.498 100.25 411.098 100.25ZM411.098 97.625C412.231 97.625 413.064 97.1 413.598 96.05C414.148 95 414.423 93.3583 414.423 91.125C414.423 88.8917 414.148 87.275 413.598 86.275C413.064 85.2583 412.231 84.75 411.098 84.75C409.981 84.75 409.148 85.2583 408.598 86.275C408.048 87.275 407.773 88.8917 407.773 91.125C407.773 93.3583 408.048 95 408.598 96.05C409.148 97.1 409.981 97.625 411.098 97.625ZM426.088 100.25C424.005 100.25 422.413 99.4667 421.313 97.9C420.213 96.3167 419.663 94.0667 419.663 91.15C419.663 89.1833 419.905 87.5333 420.388 86.2C420.888 84.85 421.613 83.8333 422.563 83.15C423.53 82.4667 424.705 82.125 426.088 82.125C428.188 82.125 429.78 82.8917 430.863 84.425C431.963 85.9583 432.513 88.1917 432.513 91.125C432.513 93.075 432.263 94.7333 431.763 96.1C431.28 97.45 430.563 98.4833 429.613 99.2C428.663 99.9 427.488 100.25 426.088 100.25ZM426.088 97.625C427.221 97.625 428.055 97.1 428.588 96.05C429.138 95 429.413 93.3583 429.413 91.125C429.413 88.8917 429.138 87.275 428.588 86.275C428.055 85.2583 427.221 84.75 426.088 84.75C424.971 84.75 424.138 85.2583 423.588 86.275C423.038 87.275 422.763 88.8917 422.763 91.125C422.763 93.3583 423.038 95 423.588 96.05C424.138 97.1 424.971 97.625 426.088 97.625ZM481.951 100.25C481.067 100.25 480.167 100.133 479.251 99.9C478.334 99.6667 477.492 99.3083 476.726 98.825C476.409 98.625 476.192 98.3917 476.076 98.125C475.976 97.8417 475.951 97.5667 476.001 97.3C476.067 97.0167 476.192 96.7833 476.376 96.6C476.576 96.4 476.809 96.2833 477.076 96.25C477.359 96.2167 477.667 96.2917 478.001 96.475C478.617 96.825 479.242 97.0917 479.876 97.275C480.509 97.4583 481.184 97.55 481.901 97.55C482.601 97.55 483.201 97.425 483.701 97.175C484.201 96.925 484.584 96.575 484.851 96.125C485.117 95.675 485.251 95.15 485.251 94.55C485.251 93.6167 484.967 92.8667 484.401 92.3C483.834 91.7167 483.059 91.425 482.076 91.425C481.542 91.425 481.026 91.5167 480.526 91.7C480.026 91.8667 479.534 92.1667 479.051 92.6C478.901 92.7333 478.709 92.8667 478.476 93C478.242 93.1167 477.992 93.175 477.726 93.175C477.309 93.175 476.992 93.0667 476.776 92.85C476.559 92.6333 476.451 92.3333 476.451 91.95V83.775C476.451 83.325 476.567 82.9833 476.801 82.75C477.051 82.5 477.401 82.375 477.851 82.375H486.076C486.526 82.375 486.867 82.4917 487.101 82.725C487.351 82.9417 487.476 83.2667 487.476 83.7C487.476 84.1167 487.351 84.4417 487.101 84.675C486.867 84.9083 486.526 85.025 486.076 85.025H479.576V90.625H478.751C479.184 90.0417 479.759 89.5917 480.476 89.275C481.192 88.9583 481.976 88.8 482.826 88.8C483.942 88.8 484.909 89.0417 485.726 89.525C486.559 89.9917 487.201 90.65 487.651 91.5C488.117 92.3333 488.351 93.3083 488.351 94.425C488.351 95.575 488.092 96.5917 487.576 97.475C487.059 98.3417 486.317 99.025 485.351 99.525C484.401 100.008 483.267 100.25 481.951 100.25ZM492.416 100.125C491.849 100.125 491.391 99.95 491.041 99.6C490.708 99.25 490.541 98.8 490.541 98.25C490.541 97.7167 490.708 97.2833 491.041 96.95C491.391 96.6 491.849 96.425 492.416 96.425C492.999 96.425 493.449 96.6 493.766 96.95C494.099 97.2833 494.266 97.7167 494.266 98.25C494.266 98.8 494.099 99.25 493.766 99.6C493.449 99.95 492.999 100.125 492.416 100.125ZM505.817 100.2C505.317 100.2 504.926 100.067 504.642 99.8C504.359 99.5167 504.217 99.1167 504.217 98.6V96.65H498.042C497.526 96.65 497.109 96.5417 496.792 96.325C496.492 96.1083 496.342 95.7667 496.342 95.3C496.342 95.0333 496.409 94.7417 496.542 94.425C496.692 94.1083 496.951 93.6917 497.317 93.175L504.167 83.25C504.401 82.9 504.659 82.6333 504.942 82.45C505.226 82.2667 505.551 82.175 505.917 82.175C506.351 82.175 506.709 82.3083 506.992 82.575C507.276 82.825 507.417 83.225 507.417 83.775V94H508.642C509.126 94 509.484 94.1167 509.717 94.35C509.967 94.5667 510.092 94.8917 510.092 95.325C510.092 95.7583 509.967 96.0917 509.717 96.325C509.484 96.5417 509.126 96.65 508.642 96.65H507.417V98.6C507.417 99.1167 507.276 99.5167 506.992 99.8C506.709 100.067 506.317 100.2 505.817 100.2ZM504.217 94V86.2H504.942L499.042 94.85V94H504.217ZM555.255 100.2C554.788 100.2 554.43 100.067 554.18 99.8C553.93 99.5333 553.805 99.15 553.805 98.65V93.75L554.505 94.2H552.68C552.297 94.2 551.997 94.1083 551.78 93.925C551.58 93.725 551.48 93.45 551.48 93.1C551.48 92.75 551.58 92.4833 551.78 92.3C551.997 92.1 552.297 92 552.68 92H554.505L553.805 92.45V89.85L554.505 90.3H552.68C552.297 90.3 551.997 90.2083 551.78 90.025C551.58 89.825 551.48 89.55 551.48 89.2C551.48 88.85 551.58 88.5833 551.78 88.4C551.997 88.2 552.297 88.1 552.68 88.1H554.505L553.805 88.55V83.875C553.805 83.325 553.93 82.9083 554.18 82.625C554.447 82.325 554.822 82.175 555.305 82.175C555.705 82.175 556.055 82.2833 556.355 82.5C556.672 82.7167 556.913 83.05 557.08 83.5L561.555 94.725H560.705V83.725C560.705 83.225 560.83 82.8417 561.08 82.575C561.33 82.3083 561.688 82.175 562.155 82.175C562.622 82.175 562.98 82.3083 563.23 82.575C563.48 82.8417 563.605 83.225 563.605 83.725V88.55L562.905 88.1H564.755C565.138 88.1 565.43 88.2 565.63 88.4C565.847 88.5833 565.955 88.85 565.955 89.2C565.955 89.55 565.847 89.825 565.63 90.025C565.43 90.2083 565.138 90.3 564.755 90.3H562.905L563.605 89.85V92.45L562.905 92H564.755C565.138 92 565.43 92.1 565.63 92.3C565.847 92.4833 565.955 92.75 565.955 93.1C565.955 93.45 565.847 93.725 565.63 93.925C565.43 94.1083 565.138 94.2 564.755 94.2H562.905L563.605 93.75V98.5C563.605 99.05 563.472 99.475 563.205 99.775C562.955 100.058 562.588 100.2 562.105 100.2C561.705 100.2 561.355 100.092 561.055 99.875C560.755 99.6583 560.513 99.325 560.33 98.875L555.855 87.675H556.705V98.65C556.705 99.15 556.58 99.5333 556.33 99.8C556.097 100.067 555.738 100.2 555.255 100.2ZM569.52 100C568.987 100 568.595 99.8833 568.345 99.65C568.112 99.4 567.995 99.0417 567.995 98.575C567.995 98.2917 568.07 98.0167 568.22 97.75C568.37 97.4833 568.587 97.2 568.87 96.9L573.895 91.55C574.662 90.75 575.212 90.025 575.545 89.375C575.879 88.7083 576.045 88.0417 576.045 87.375C576.045 86.5417 575.779 85.9083 575.245 85.475C574.729 85.0417 573.97 84.825 572.97 84.825C572.404 84.825 571.837 84.9083 571.27 85.075C570.704 85.225 570.129 85.4917 569.545 85.875C569.245 86.075 568.962 86.1583 568.695 86.125C568.445 86.0917 568.22 85.9833 568.02 85.8C567.837 85.6167 567.712 85.3917 567.645 85.125C567.579 84.8583 567.587 84.5917 567.67 84.325C567.77 84.0417 567.97 83.8 568.27 83.6C568.987 83.1167 569.787 82.75 570.67 82.5C571.57 82.25 572.47 82.125 573.37 82.125C574.637 82.125 575.704 82.3167 576.57 82.7C577.437 83.0833 578.095 83.6417 578.545 84.375C578.995 85.1083 579.22 86 579.22 87.05C579.22 87.75 579.104 88.4333 578.87 89.1C578.654 89.7667 578.312 90.4417 577.845 91.125C577.395 91.8083 576.804 92.5333 576.07 93.3L571.37 98.2V97.35H578.72C579.17 97.35 579.512 97.4583 579.745 97.675C579.979 97.8917 580.095 98.2167 580.095 98.65C580.095 99.0833 579.979 99.4167 579.745 99.65C579.512 99.8833 579.17 100 578.72 100H569.52ZM588.836 100.25C587.952 100.25 587.052 100.133 586.136 99.9C585.219 99.6667 584.377 99.3083 583.611 98.825C583.294 98.625 583.077 98.3917 582.961 98.125C582.861 97.8417 582.836 97.5667 582.886 97.3C582.952 97.0167 583.077 96.7833 583.261 96.6C583.461 96.4 583.694 96.2833 583.961 96.25C584.244 96.2167 584.552 96.2917 584.886 96.475C585.502 96.825 586.127 97.0917 586.761 97.275C587.394 97.4583 588.069 97.55 588.786 97.55C589.486 97.55 590.086 97.425 590.586 97.175C591.086 96.925 591.469 96.575 591.736 96.125C592.002 95.675 592.136 95.15 592.136 94.55C592.136 93.6167 591.852 92.8667 591.286 92.3C590.719 91.7167 589.944 91.425 588.961 91.425C588.427 91.425 587.911 91.5167 587.411 91.7C586.911 91.8667 586.419 92.1667 585.936 92.6C585.786 92.7333 585.594 92.8667 585.361 93C585.127 93.1167 584.877 93.175 584.611 93.175C584.194 93.175 583.877 93.0667 583.661 92.85C583.444 92.6333 583.336 92.3333 583.336 91.95V83.775C583.336 83.325 583.452 82.9833 583.686 82.75C583.936 82.5 584.286 82.375 584.736 82.375H592.961C593.411 82.375 593.752 82.4917 593.986 82.725C594.236 82.9417 594.361 83.2667 594.361 83.7C594.361 84.1167 594.236 84.4417 593.986 84.675C593.752 84.9083 593.411 85.025 592.961 85.025H586.461V90.625H585.636C586.069 90.0417 586.644 89.5917 587.361 89.275C588.077 88.9583 588.861 88.8 589.711 88.8C590.827 88.8 591.794 89.0417 592.611 89.525C593.444 89.9917 594.086 90.65 594.536 91.5C595.002 92.3333 595.236 93.3083 595.236 94.425C595.236 95.575 594.977 96.5917 594.461 97.475C593.944 98.3417 593.202 99.025 592.236 99.525C591.286 100.008 590.152 100.25 588.836 100.25ZM599.701 102.675C599.484 102.942 599.251 103.092 599.001 103.125C598.767 103.175 598.559 103.133 598.376 103C598.192 102.867 598.092 102.675 598.076 102.425C598.059 102.192 598.167 101.933 598.401 101.65C598.734 101.233 598.959 100.817 599.076 100.4C599.192 99.9833 599.251 99.6083 599.251 99.275L599.376 100.125C598.792 100.125 598.317 99.9583 597.951 99.625C597.601 99.275 597.426 98.8167 597.426 98.25C597.426 97.7167 597.592 97.2833 597.926 96.95C598.259 96.6 598.709 96.425 599.276 96.425C599.859 96.425 600.317 96.625 600.651 97.025C600.984 97.4083 601.151 97.9667 601.151 98.7C601.151 99.1 601.109 99.5167 601.026 99.95C600.959 100.367 600.817 100.8 600.601 101.25C600.401 101.717 600.101 102.192 599.701 102.675ZM612.702 100.2C612.202 100.2 611.81 100.067 611.527 99.8C611.244 99.5167 611.102 99.1167 611.102 98.6V96.65H604.927C604.41 96.65 603.994 96.5417 603.677 96.325C603.377 96.1083 603.227 95.7667 603.227 95.3C603.227 95.0333 603.294 94.7417 603.427 94.425C603.577 94.1083 603.835 93.6917 604.202 93.175L611.052 83.25C611.285 82.9 611.544 82.6333 611.827 82.45C612.11 82.2667 612.435 82.175 612.802 82.175C613.235 82.175 613.594 82.3083 613.877 82.575C614.16 82.825 614.302 83.225 614.302 83.775V94H615.527C616.01 94 616.369 94.1167 616.602 94.35C616.852 94.5667 616.977 94.8917 616.977 95.325C616.977 95.7583 616.852 96.0917 616.602 96.325C616.369 96.5417 616.01 96.65 615.527 96.65H614.302V98.6C614.302 99.1167 614.16 99.5167 613.877 99.8C613.594 100.067 613.202 100.2 612.702 100.2ZM611.102 94V86.2H611.827L605.927 94.85V94H611.102ZM624.867 100.25C622.784 100.25 621.192 99.4667 620.092 97.9C618.992 96.3167 618.442 94.0667 618.442 91.15C618.442 89.1833 618.684 87.5333 619.167 86.2C619.667 84.85 620.392 83.8333 621.342 83.15C622.309 82.4667 623.484 82.125 624.867 82.125C626.967 82.125 628.559 82.8917 629.642 84.425C630.742 85.9583 631.292 88.1917 631.292 91.125C631.292 93.075 631.042 94.7333 630.542 96.1C630.059 97.45 629.342 98.4833 628.392 99.2C627.442 99.9 626.267 100.25 624.867 100.25ZM624.867 97.625C626.001 97.625 626.834 97.1 627.367 96.05C627.917 95 628.192 93.3583 628.192 91.125C628.192 88.8917 627.917 87.275 627.367 86.275C626.834 85.2583 626.001 84.75 624.867 84.75C623.751 84.75 622.917 85.2583 622.367 86.275C621.817 87.275 621.542 88.8917 621.542 91.125C621.542 93.3583 621.817 95 622.367 96.05C622.917 97.1 623.751 97.625 624.867 97.625ZM639.857 100.25C637.774 100.25 636.182 99.4667 635.082 97.9C633.982 96.3167 633.432 94.0667 633.432 91.15C633.432 89.1833 633.674 87.5333 634.157 86.2C634.657 84.85 635.382 83.8333 636.332 83.15C637.299 82.4667 638.474 82.125 639.857 82.125C641.957 82.125 643.549 82.8917 644.632 84.425C645.732 85.9583 646.282 88.1917 646.282 91.125C646.282 93.075 646.032 94.7333 645.532 96.1C645.049 97.45 644.332 98.4833 643.382 99.2C642.432 99.9 641.257 100.25 639.857 100.25ZM639.857 97.625C640.991 97.625 641.824 97.1 642.357 96.05C642.907 95 643.182 93.3583 643.182 91.125C643.182 88.8917 642.907 87.275 642.357 86.275C641.824 85.2583 640.991 84.75 639.857 84.75C638.741 84.75 637.907 85.2583 637.357 86.275C636.807 87.275 636.532 88.8917 636.532 91.125C636.532 93.3583 636.807 95 637.357 96.05C637.907 97.1 638.741 97.625 639.857 97.625ZM278.261 154C277.727 154 277.336 153.883 277.086 153.65C276.852 153.4 276.736 153.042 276.736 152.575C276.736 152.292 276.811 152.017 276.961 151.75C277.111 151.483 277.327 151.2 277.611 150.9L282.636 145.55C283.402 144.75 283.952 144.025 284.286 143.375C284.619 142.708 284.786 142.042 284.786 141.375C284.786 140.542 284.519 139.908 283.986 139.475C283.469 139.042 282.711 138.825 281.711 138.825C281.144 138.825 280.577 138.908 280.011 139.075C279.444 139.225 278.869 139.492 278.286 139.875C277.986 140.075 277.702 140.158 277.436 140.125C277.186 140.092 276.961 139.983 276.761 139.8C276.577 139.617 276.452 139.392 276.386 139.125C276.319 138.858 276.327 138.592 276.411 138.325C276.511 138.042 276.711 137.8 277.011 137.6C277.727 137.117 278.527 136.75 279.411 136.5C280.311 136.25 281.211 136.125 282.111 136.125C283.377 136.125 284.444 136.317 285.311 136.7C286.177 137.083 286.836 137.642 287.286 138.375C287.736 139.108 287.961 140 287.961 141.05C287.961 141.75 287.844 142.433 287.611 143.1C287.394 143.767 287.052 144.442 286.586 145.125C286.136 145.808 285.544 146.533 284.811 147.3L280.111 152.2V151.35H287.461C287.911 151.35 288.252 151.458 288.486 151.675C288.719 151.892 288.836 152.217 288.836 152.65C288.836 153.083 288.719 153.417 288.486 153.65C288.252 153.883 287.911 154 287.461 154H278.261ZM341.486 154.2C341.019 154.2 340.661 154.067 340.411 153.8C340.161 153.533 340.036 153.15 340.036 152.65V147.75L340.736 148.2H338.911C338.527 148.2 338.227 148.108 338.011 147.925C337.811 147.725 337.711 147.45 337.711 147.1C337.711 146.75 337.811 146.483 338.011 146.3C338.227 146.1 338.527 146 338.911 146H340.736L340.036 146.45V143.85L340.736 144.3H338.911C338.527 144.3 338.227 144.208 338.011 144.025C337.811 143.825 337.711 143.55 337.711 143.2C337.711 142.85 337.811 142.583 338.011 142.4C338.227 142.2 338.527 142.1 338.911 142.1H340.736L340.036 142.55V137.875C340.036 137.325 340.161 136.908 340.411 136.625C340.677 136.325 341.052 136.175 341.536 136.175C341.936 136.175 342.286 136.283 342.586 136.5C342.902 136.717 343.144 137.05 343.311 137.5L347.786 148.725H346.936V137.725C346.936 137.225 347.061 136.842 347.311 136.575C347.561 136.308 347.919 136.175 348.386 136.175C348.852 136.175 349.211 136.308 349.461 136.575C349.711 136.842 349.836 137.225 349.836 137.725V142.55L349.136 142.1H350.986C351.369 142.1 351.661 142.2 351.861 142.4C352.077 142.583 352.186 142.85 352.186 143.2C352.186 143.55 352.077 143.825 351.861 144.025C351.661 144.208 351.369 144.3 350.986 144.3H349.136L349.836 143.85V146.45L349.136 146H350.986C351.369 146 351.661 146.1 351.861 146.3C352.077 146.483 352.186 146.75 352.186 147.1C352.186 147.45 352.077 147.725 351.861 147.925C351.661 148.108 351.369 148.2 350.986 148.2H349.136L349.836 147.75V152.5C349.836 153.05 349.702 153.475 349.436 153.775C349.186 154.058 348.819 154.2 348.336 154.2C347.936 154.2 347.586 154.092 347.286 153.875C346.986 153.658 346.744 153.325 346.561 152.875L342.086 141.675H342.936V152.65C342.936 153.15 342.811 153.533 342.561 153.8C342.327 154.067 341.969 154.2 341.486 154.2ZM356.326 154C355.892 154 355.551 153.883 355.301 153.65C355.067 153.4 354.951 153.067 354.951 152.65C354.951 152.217 355.067 151.892 355.301 151.675C355.551 151.458 355.892 151.35 356.326 151.35H359.126V139.075H360.676L357.001 141.3C356.684 141.483 356.384 141.558 356.101 141.525C355.834 141.475 355.601 141.358 355.401 141.175C355.217 140.975 355.092 140.742 355.026 140.475C354.959 140.208 354.976 139.942 355.076 139.675C355.192 139.392 355.409 139.158 355.726 138.975L359.176 136.9C359.509 136.7 359.842 136.533 360.176 136.4C360.509 136.25 360.817 136.175 361.101 136.175C361.451 136.175 361.742 136.275 361.976 136.475C362.209 136.658 362.326 136.967 362.326 137.4V151.35H364.876C365.309 151.35 365.642 151.458 365.876 151.675C366.126 151.892 366.251 152.217 366.251 152.65C366.251 153.083 366.126 153.417 365.876 153.65C365.642 153.883 365.309 154 364.876 154H356.326ZM374.916 154.25C372.833 154.25 371.241 153.467 370.141 151.9C369.041 150.317 368.491 148.067 368.491 145.15C368.491 143.183 368.733 141.533 369.216 140.2C369.716 138.85 370.441 137.833 371.391 137.15C372.358 136.467 373.533 136.125 374.916 136.125C377.016 136.125 378.608 136.892 379.691 138.425C380.791 139.958 381.341 142.192 381.341 145.125C381.341 147.075 381.091 148.733 380.591 150.1C380.108 151.45 379.391 152.483 378.441 153.2C377.491 153.9 376.316 154.25 374.916 154.25ZM374.916 151.625C376.049 151.625 376.883 151.1 377.416 150.05C377.966 149 378.241 147.358 378.241 145.125C378.241 142.892 377.966 141.275 377.416 140.275C376.883 139.258 376.049 138.75 374.916 138.75C373.799 138.75 372.966 139.258 372.416 140.275C371.866 141.275 371.591 142.892 371.591 145.125C371.591 147.358 371.866 149 372.416 150.05C372.966 151.1 373.799 151.625 374.916 151.625ZM385.931 156.675C385.715 156.942 385.481 157.092 385.231 157.125C384.998 157.175 384.79 157.133 384.606 157C384.423 156.867 384.323 156.675 384.306 156.425C384.29 156.192 384.398 155.933 384.631 155.65C384.965 155.233 385.19 154.817 385.306 154.4C385.423 153.983 385.481 153.608 385.481 153.275L385.606 154.125C385.023 154.125 384.548 153.958 384.181 153.625C383.831 153.275 383.656 152.817 383.656 152.25C383.656 151.717 383.823 151.283 384.156 150.95C384.49 150.6 384.94 150.425 385.506 150.425C386.09 150.425 386.548 150.625 386.881 151.025C387.215 151.408 387.381 151.967 387.381 152.7C387.381 153.1 387.34 153.517 387.256 153.95C387.19 154.367 387.048 154.8 386.831 155.25C386.631 155.717 386.331 156.192 385.931 156.675ZM396.107 154.25C394.024 154.25 392.432 153.467 391.332 151.9C390.232 150.317 389.682 148.067 389.682 145.15C389.682 143.183 389.924 141.533 390.407 140.2C390.907 138.85 391.632 137.833 392.582 137.15C393.549 136.467 394.724 136.125 396.107 136.125C398.207 136.125 399.799 136.892 400.882 138.425C401.982 139.958 402.532 142.192 402.532 145.125C402.532 147.075 402.282 148.733 401.782 150.1C401.299 151.45 400.582 152.483 399.632 153.2C398.682 153.9 397.507 154.25 396.107 154.25ZM396.107 151.625C397.241 151.625 398.074 151.1 398.607 150.05C399.157 149 399.432 147.358 399.432 145.125C399.432 142.892 399.157 141.275 398.607 140.275C398.074 139.258 397.241 138.75 396.107 138.75C394.991 138.75 394.157 139.258 393.607 140.275C393.057 141.275 392.782 142.892 392.782 145.125C392.782 147.358 393.057 149 393.607 150.05C394.157 151.1 394.991 151.625 396.107 151.625ZM411.098 154.25C409.014 154.25 407.423 153.467 406.323 151.9C405.223 150.317 404.673 148.067 404.673 145.15C404.673 143.183 404.914 141.533 405.398 140.2C405.898 138.85 406.623 137.833 407.573 137.15C408.539 136.467 409.714 136.125 411.098 136.125C413.198 136.125 414.789 136.892 415.873 138.425C416.973 139.958 417.523 142.192 417.523 145.125C417.523 147.075 417.273 148.733 416.773 150.1C416.289 151.45 415.573 152.483 414.623 153.2C413.673 153.9 412.498 154.25 411.098 154.25ZM411.098 151.625C412.231 151.625 413.064 151.1 413.598 150.05C414.148 149 414.423 147.358 414.423 145.125C414.423 142.892 414.148 141.275 413.598 140.275C413.064 139.258 412.231 138.75 411.098 138.75C409.981 138.75 409.148 139.258 408.598 140.275C408.048 141.275 407.773 142.892 407.773 145.125C407.773 147.358 408.048 149 408.598 150.05C409.148 151.1 409.981 151.625 411.098 151.625ZM426.088 154.25C424.005 154.25 422.413 153.467 421.313 151.9C420.213 150.317 419.663 148.067 419.663 145.15C419.663 143.183 419.905 141.533 420.388 140.2C420.888 138.85 421.613 137.833 422.563 137.15C423.53 136.467 424.705 136.125 426.088 136.125C428.188 136.125 429.78 136.892 430.863 138.425C431.963 139.958 432.513 142.192 432.513 145.125C432.513 147.075 432.263 148.733 431.763 150.1C431.28 151.45 430.563 152.483 429.613 153.2C428.663 153.9 427.488 154.25 426.088 154.25ZM426.088 151.625C427.221 151.625 428.055 151.1 428.588 150.05C429.138 149 429.413 147.358 429.413 145.125C429.413 142.892 429.138 141.275 428.588 140.275C428.055 139.258 427.221 138.75 426.088 138.75C424.971 138.75 424.138 139.258 423.588 140.275C423.038 141.275 422.763 142.892 422.763 145.125C422.763 147.358 423.038 149 423.588 150.05C424.138 151.1 424.971 151.625 426.088 151.625ZM483.863 148.55C483.496 148.55 483.188 148.433 482.938 148.2C482.705 147.95 482.588 147.65 482.588 147.3C482.588 146.933 482.705 146.633 482.938 146.4C483.188 146.167 483.496 146.05 483.863 146.05H489.188C489.538 146.05 489.83 146.167 490.063 146.4C490.313 146.633 490.438 146.933 490.438 147.3C490.438 147.65 490.313 147.95 490.063 148.2C489.83 148.433 489.538 148.55 489.188 148.55H483.863ZM494.703 148.55C494.336 148.55 494.028 148.433 493.778 148.2C493.544 147.95 493.428 147.65 493.428 147.3C493.428 146.933 493.544 146.633 493.778 146.4C494.028 146.167 494.336 146.05 494.703 146.05H500.028C500.378 146.05 500.669 146.167 500.903 146.4C501.153 146.633 501.278 146.933 501.278 147.3C501.278 147.65 501.153 147.95 500.903 148.2C500.669 148.433 500.378 148.55 500.028 148.55H494.703ZM586.988 148.55C586.621 148.55 586.313 148.433 586.063 148.2C585.83 147.95 585.713 147.65 585.713 147.3C585.713 146.933 585.83 146.633 586.063 146.4C586.313 146.167 586.621 146.05 586.988 146.05H592.313C592.663 146.05 592.955 146.167 593.188 146.4C593.438 146.633 593.563 146.933 593.563 147.3C593.563 147.65 593.438 147.95 593.188 148.2C592.955 148.433 592.663 148.55 592.313 148.55H586.988ZM597.828 148.55C597.461 148.55 597.153 148.433 596.903 148.2C596.669 147.95 596.553 147.65 596.553 147.3C596.553 146.933 596.669 146.633 596.903 146.4C597.153 146.167 597.461 146.05 597.828 146.05H603.153C603.503 146.05 603.794 146.167 604.028 146.4C604.278 146.633 604.403 146.933 604.403 147.3C604.403 147.65 604.278 147.95 604.028 148.2C603.794 148.433 603.503 148.55 603.153 148.55H597.828ZM282.086 208.25C281.186 208.25 280.252 208.133 279.286 207.9C278.319 207.667 277.477 207.317 276.761 206.85C276.427 206.633 276.202 206.383 276.086 206.1C275.969 205.817 275.936 205.55 275.986 205.3C276.052 205.033 276.177 204.808 276.361 204.625C276.561 204.442 276.802 204.333 277.086 204.3C277.386 204.267 277.711 204.342 278.061 204.525C278.744 204.892 279.402 205.158 280.036 205.325C280.669 205.475 281.319 205.55 281.986 205.55C282.719 205.55 283.336 205.45 283.836 205.25C284.336 205.05 284.711 204.75 284.961 204.35C285.227 203.95 285.361 203.467 285.361 202.9C285.361 202.067 285.077 201.45 284.511 201.05C283.961 200.633 283.152 200.425 282.086 200.425H280.486C280.019 200.425 279.661 200.308 279.411 200.075C279.177 199.842 279.061 199.517 279.061 199.1C279.061 198.683 279.177 198.358 279.411 198.125C279.661 197.892 280.019 197.775 280.486 197.775H281.786C282.419 197.775 282.961 197.675 283.411 197.475C283.861 197.258 284.211 196.958 284.461 196.575C284.711 196.192 284.836 195.725 284.836 195.175C284.836 194.408 284.577 193.825 284.061 193.425C283.561 193.025 282.827 192.825 281.861 192.825C281.244 192.825 280.661 192.9 280.111 193.05C279.577 193.183 278.986 193.442 278.336 193.825C278.036 194.008 277.744 194.083 277.461 194.05C277.194 194.017 276.969 193.908 276.786 193.725C276.602 193.542 276.477 193.325 276.411 193.075C276.344 192.808 276.361 192.542 276.461 192.275C276.561 191.992 276.769 191.75 277.086 191.55C277.802 191.083 278.594 190.733 279.461 190.5C280.327 190.25 281.219 190.125 282.136 190.125C283.352 190.125 284.394 190.317 285.261 190.7C286.127 191.067 286.786 191.6 287.236 192.3C287.702 192.983 287.936 193.817 287.936 194.8C287.936 195.5 287.802 196.142 287.536 196.725C287.269 197.292 286.894 197.775 286.411 198.175C285.927 198.575 285.344 198.858 284.661 199.025V198.725C285.861 198.925 286.794 199.425 287.461 200.225C288.127 201.008 288.461 201.992 288.461 203.175C288.461 204.208 288.202 205.108 287.686 205.875C287.169 206.642 286.436 207.233 285.486 207.65C284.536 208.05 283.402 208.25 282.086 208.25ZM341.486 208.2C341.019 208.2 340.661 208.067 340.411 207.8C340.161 207.533 340.036 207.15 340.036 206.65V201.75L340.736 202.2H338.911C338.527 202.2 338.227 202.108 338.011 201.925C337.811 201.725 337.711 201.45 337.711 201.1C337.711 200.75 337.811 200.483 338.011 200.3C338.227 200.1 338.527 200 338.911 200H340.736L340.036 200.45V197.85L340.736 198.3H338.911C338.527 198.3 338.227 198.208 338.011 198.025C337.811 197.825 337.711 197.55 337.711 197.2C337.711 196.85 337.811 196.583 338.011 196.4C338.227 196.2 338.527 196.1 338.911 196.1H340.736L340.036 196.55V191.875C340.036 191.325 340.161 190.908 340.411 190.625C340.677 190.325 341.052 190.175 341.536 190.175C341.936 190.175 342.286 190.283 342.586 190.5C342.902 190.717 343.144 191.05 343.311 191.5L347.786 202.725H346.936V191.725C346.936 191.225 347.061 190.842 347.311 190.575C347.561 190.308 347.919 190.175 348.386 190.175C348.852 190.175 349.211 190.308 349.461 190.575C349.711 190.842 349.836 191.225 349.836 191.725V196.55L349.136 196.1H350.986C351.369 196.1 351.661 196.2 351.861 196.4C352.077 196.583 352.186 196.85 352.186 197.2C352.186 197.55 352.077 197.825 351.861 198.025C351.661 198.208 351.369 198.3 350.986 198.3H349.136L349.836 197.85V200.45L349.136 200H350.986C351.369 200 351.661 200.1 351.861 200.3C352.077 200.483 352.186 200.75 352.186 201.1C352.186 201.45 352.077 201.725 351.861 201.925C351.661 202.108 351.369 202.2 350.986 202.2H349.136L349.836 201.75V206.5C349.836 207.05 349.702 207.475 349.436 207.775C349.186 208.058 348.819 208.2 348.336 208.2C347.936 208.2 347.586 208.092 347.286 207.875C346.986 207.658 346.744 207.325 346.561 206.875L342.086 195.675H342.936V206.65C342.936 207.15 342.811 207.533 342.561 207.8C342.327 208.067 341.969 208.2 341.486 208.2ZM356.326 208C355.892 208 355.551 207.883 355.301 207.65C355.067 207.4 354.951 207.067 354.951 206.65C354.951 206.217 355.067 205.892 355.301 205.675C355.551 205.458 355.892 205.35 356.326 205.35H359.126V193.075H360.676L357.001 195.3C356.684 195.483 356.384 195.558 356.101 195.525C355.834 195.475 355.601 195.358 355.401 195.175C355.217 194.975 355.092 194.742 355.026 194.475C354.959 194.208 354.976 193.942 355.076 193.675C355.192 193.392 355.409 193.158 355.726 192.975L359.176 190.9C359.509 190.7 359.842 190.533 360.176 190.4C360.509 190.25 360.817 190.175 361.101 190.175C361.451 190.175 361.742 190.275 361.976 190.475C362.209 190.658 362.326 190.967 362.326 191.4V205.35H364.876C365.309 205.35 365.642 205.458 365.876 205.675C366.126 205.892 366.251 206.217 366.251 206.65C366.251 207.083 366.126 207.417 365.876 207.65C365.642 207.883 365.309 208 364.876 208H356.326ZM374.916 208.25C372.833 208.25 371.241 207.467 370.141 205.9C369.041 204.317 368.491 202.067 368.491 199.15C368.491 197.183 368.733 195.533 369.216 194.2C369.716 192.85 370.441 191.833 371.391 191.15C372.358 190.467 373.533 190.125 374.916 190.125C377.016 190.125 378.608 190.892 379.691 192.425C380.791 193.958 381.341 196.192 381.341 199.125C381.341 201.075 381.091 202.733 380.591 204.1C380.108 205.45 379.391 206.483 378.441 207.2C377.491 207.9 376.316 208.25 374.916 208.25ZM374.916 205.625C376.049 205.625 376.883 205.1 377.416 204.05C377.966 203 378.241 201.358 378.241 199.125C378.241 196.892 377.966 195.275 377.416 194.275C376.883 193.258 376.049 192.75 374.916 192.75C373.799 192.75 372.966 193.258 372.416 194.275C371.866 195.275 371.591 196.892 371.591 199.125C371.591 201.358 371.866 203 372.416 204.05C372.966 205.1 373.799 205.625 374.916 205.625ZM385.931 210.675C385.715 210.942 385.481 211.092 385.231 211.125C384.998 211.175 384.79 211.133 384.606 211C384.423 210.867 384.323 210.675 384.306 210.425C384.29 210.192 384.398 209.933 384.631 209.65C384.965 209.233 385.19 208.817 385.306 208.4C385.423 207.983 385.481 207.608 385.481 207.275L385.606 208.125C385.023 208.125 384.548 207.958 384.181 207.625C383.831 207.275 383.656 206.817 383.656 206.25C383.656 205.717 383.823 205.283 384.156 204.95C384.49 204.6 384.94 204.425 385.506 204.425C386.09 204.425 386.548 204.625 386.881 205.025C387.215 205.408 387.381 205.967 387.381 206.7C387.381 207.1 387.34 207.517 387.256 207.95C387.19 208.367 387.048 208.8 386.831 209.25C386.631 209.717 386.331 210.192 385.931 210.675ZM396.107 208.25C394.024 208.25 392.432 207.467 391.332 205.9C390.232 204.317 389.682 202.067 389.682 199.15C389.682 197.183 389.924 195.533 390.407 194.2C390.907 192.85 391.632 191.833 392.582 191.15C393.549 190.467 394.724 190.125 396.107 190.125C398.207 190.125 399.799 190.892 400.882 192.425C401.982 193.958 402.532 196.192 402.532 199.125C402.532 201.075 402.282 202.733 401.782 204.1C401.299 205.45 400.582 206.483 399.632 207.2C398.682 207.9 397.507 208.25 396.107 208.25ZM396.107 205.625C397.241 205.625 398.074 205.1 398.607 204.05C399.157 203 399.432 201.358 399.432 199.125C399.432 196.892 399.157 195.275 398.607 194.275C398.074 193.258 397.241 192.75 396.107 192.75C394.991 192.75 394.157 193.258 393.607 194.275C393.057 195.275 392.782 196.892 392.782 199.125C392.782 201.358 393.057 203 393.607 204.05C394.157 205.1 394.991 205.625 396.107 205.625ZM411.098 208.25C409.014 208.25 407.423 207.467 406.323 205.9C405.223 204.317 404.673 202.067 404.673 199.15C404.673 197.183 404.914 195.533 405.398 194.2C405.898 192.85 406.623 191.833 407.573 191.15C408.539 190.467 409.714 190.125 411.098 190.125C413.198 190.125 414.789 190.892 415.873 192.425C416.973 193.958 417.523 196.192 417.523 199.125C417.523 201.075 417.273 202.733 416.773 204.1C416.289 205.45 415.573 206.483 414.623 207.2C413.673 207.9 412.498 208.25 411.098 208.25ZM411.098 205.625C412.231 205.625 413.064 205.1 413.598 204.05C414.148 203 414.423 201.358 414.423 199.125C414.423 196.892 414.148 195.275 413.598 194.275C413.064 193.258 412.231 192.75 411.098 192.75C409.981 192.75 409.148 193.258 408.598 194.275C408.048 195.275 407.773 196.892 407.773 199.125C407.773 201.358 408.048 203 408.598 204.05C409.148 205.1 409.981 205.625 411.098 205.625ZM426.088 208.25C424.005 208.25 422.413 207.467 421.313 205.9C420.213 204.317 419.663 202.067 419.663 199.15C419.663 197.183 419.905 195.533 420.388 194.2C420.888 192.85 421.613 191.833 422.563 191.15C423.53 190.467 424.705 190.125 426.088 190.125C428.188 190.125 429.78 190.892 430.863 192.425C431.963 193.958 432.513 196.192 432.513 199.125C432.513 201.075 432.263 202.733 431.763 204.1C431.28 205.45 430.563 206.483 429.613 207.2C428.663 207.9 427.488 208.25 426.088 208.25ZM426.088 205.625C427.221 205.625 428.055 205.1 428.588 204.05C429.138 203 429.413 201.358 429.413 199.125C429.413 196.892 429.138 195.275 428.588 194.275C428.055 193.258 427.221 192.75 426.088 192.75C424.971 192.75 424.138 193.258 423.588 194.275C423.038 195.275 422.763 196.892 422.763 199.125C422.763 201.358 423.038 203 423.588 204.05C424.138 205.1 424.971 205.625 426.088 205.625ZM490.65 202.55C490.283 202.55 489.975 202.433 489.725 202.2C489.492 201.95 489.375 201.65 489.375 201.3C489.375 200.933 489.492 200.633 489.725 200.4C489.975 200.167 490.283 200.05 490.65 200.05H495.975C496.325 200.05 496.617 200.167 496.85 200.4C497.1 200.633 497.225 200.933 497.225 201.3C497.225 201.65 497.1 201.95 496.85 202.2C496.617 202.433 496.325 202.55 495.975 202.55H490.65ZM501.49 202.55C501.123 202.55 500.815 202.433 500.565 202.2C500.332 201.95 500.215 201.65 500.215 201.3C500.215 200.933 500.332 200.633 500.565 200.4C500.815 200.167 501.123 200.05 501.49 200.05H506.815C507.165 200.05 507.457 200.167 507.69 200.4C507.94 200.633 508.065 200.933 508.065 201.3C508.065 201.65 507.94 201.95 507.69 202.2C507.457 202.433 507.165 202.55 506.815 202.55H501.49Z" fill="black"/>
<rect x="677" y="70" width="141" height="39" fill="white"/>
<path d="M732.125 99.2C731.675 99.2 731.308 99.0917 731.025 98.875C730.758 98.6583 730.542 98.3167 730.375 97.85L725.15 83.075C724.967 82.5417 725 82.0917 725.25 81.725C725.517 81.3583 725.958 81.175 726.575 81.175C727.025 81.175 727.375 81.2833 727.625 81.5C727.875 81.7 728.075 82.025 728.225 82.475L732.725 95.825H731.725L736.425 82.5C736.592 82.05 736.8 81.7167 737.05 81.5C737.3 81.2833 737.625 81.175 738.025 81.175C738.425 81.175 738.742 81.2833 738.975 81.5C739.208 81.7167 739.408 82.0583 739.575 82.525L744.125 95.825H743.25L747.825 82.475C747.975 82.0417 748.175 81.7167 748.425 81.5C748.675 81.2833 749.017 81.175 749.45 81.175C749.983 81.175 750.375 81.3583 750.625 81.725C750.875 82.0917 750.908 82.5417 750.725 83.075L745.45 97.875C745.283 98.325 745.067 98.6583 744.8 98.875C744.533 99.0917 744.175 99.2 743.725 99.2C743.275 99.2 742.917 99.0917 742.65 98.875C742.383 98.6583 742.167 98.3167 742 97.85L737.65 85.45H738.225L733.825 97.875C733.658 98.325 733.442 98.6583 733.175 98.875C732.925 99.0917 732.575 99.2 732.125 99.2ZM757.47 99.25C756.203 99.25 755.103 98.9917 754.17 98.475C753.236 97.9583 752.511 97.225 751.995 96.275C751.478 95.3083 751.22 94.175 751.22 92.875C751.22 91.8917 751.361 91.0167 751.645 90.25C751.945 89.4667 752.37 88.8 752.92 88.25C753.47 87.6833 754.128 87.2583 754.895 86.975C755.661 86.675 756.52 86.525 757.47 86.525C758.736 86.525 759.836 86.7833 760.77 87.3C761.703 87.8167 762.428 88.55 762.945 89.5C763.461 90.45 763.72 91.575 763.72 92.875C763.72 93.8583 763.57 94.7417 763.27 95.525C762.986 96.3083 762.57 96.9833 762.02 97.55C761.47 98.1 760.811 98.525 760.045 98.825C759.278 99.1083 758.42 99.25 757.47 99.25ZM757.47 96.875C758.086 96.875 758.628 96.725 759.095 96.425C759.561 96.125 759.92 95.6833 760.17 95.1C760.436 94.5 760.57 93.7583 760.57 92.875C760.57 91.5417 760.286 90.55 759.72 89.9C759.153 89.2333 758.403 88.9 757.47 88.9C756.853 88.9 756.311 89.05 755.845 89.35C755.378 89.6333 755.011 90.075 754.745 90.675C754.495 91.2583 754.37 91.9917 754.37 92.875C754.37 94.1917 754.653 95.1917 755.22 95.875C755.786 96.5417 756.536 96.875 757.47 96.875ZM767.849 99.2C767.349 99.2 766.965 99.0667 766.699 98.8C766.432 98.5167 766.299 98.1167 766.299 97.6V88.15C766.299 87.6333 766.432 87.2417 766.699 86.975C766.965 86.7083 767.34 86.575 767.824 86.575C768.307 86.575 768.682 86.7083 768.949 86.975C769.215 87.2417 769.349 87.6333 769.349 88.15V89.85L769.074 89.225C769.44 88.3417 770.007 87.675 770.774 87.225C771.557 86.7583 772.44 86.525 773.424 86.525C774.407 86.525 775.215 86.7083 775.849 87.075C776.482 87.4417 776.957 88 777.274 88.75C777.59 89.4833 777.749 90.4167 777.749 91.55V97.6C777.749 98.1167 777.615 98.5167 777.349 98.8C777.082 99.0667 776.699 99.2 776.199 99.2C775.699 99.2 775.307 99.0667 775.024 98.8C774.757 98.5167 774.624 98.1167 774.624 97.6V91.7C774.624 90.75 774.44 90.0583 774.074 89.625C773.724 89.1917 773.174 88.975 772.424 88.975C771.507 88.975 770.774 89.2667 770.224 89.85C769.69 90.4167 769.424 91.175 769.424 92.125V97.6C769.424 98.6667 768.899 99.2 767.849 99.2Z" fill="black"/>
<rect x="677" y="126" width="141" height="39" fill="#38BC6D"/>
<path d="M732.125 155.2C731.675 155.2 731.308 155.092 731.025 154.875C730.758 154.658 730.542 154.317 730.375 153.85L725.15 139.075C724.967 138.542 725 138.092 725.25 137.725C725.517 137.358 725.958 137.175 726.575 137.175C727.025 137.175 727.375 137.283 727.625 137.5C727.875 137.7 728.075 138.025 728.225 138.475L732.725 151.825H731.725L736.425 138.5C736.592 138.05 736.8 137.717 737.05 137.5C737.3 137.283 737.625 137.175 738.025 137.175C738.425 137.175 738.742 137.283 738.975 137.5C739.208 137.717 739.408 138.058 739.575 138.525L744.125 151.825H743.25L747.825 138.475C747.975 138.042 748.175 137.717 748.425 137.5C748.675 137.283 749.017 137.175 749.45 137.175C749.983 137.175 750.375 137.358 750.625 137.725C750.875 138.092 750.908 138.542 750.725 139.075L745.45 153.875C745.283 154.325 745.067 154.658 744.8 154.875C744.533 155.092 744.175 155.2 743.725 155.2C743.275 155.2 742.917 155.092 742.65 154.875C742.383 154.658 742.167 154.317 742 153.85L737.65 141.45H738.225L733.825 153.875C733.658 154.325 733.442 154.658 733.175 154.875C732.925 155.092 732.575 155.2 732.125 155.2ZM756.252 155.175C755.752 155.175 755.369 155.025 755.102 154.725C754.835 154.425 754.702 154.008 754.702 153.475V144.3C754.702 143.75 754.835 143.333 755.102 143.05C755.369 142.75 755.752 142.6 756.252 142.6C756.752 142.6 757.135 142.75 757.402 143.05C757.685 143.333 757.827 143.75 757.827 144.3V153.475C757.827 154.008 757.694 154.425 757.427 154.725C757.16 155.025 756.769 155.175 756.252 155.175ZM756.252 140.275C755.669 140.275 755.21 140.133 754.877 139.85C754.56 139.55 754.402 139.142 754.402 138.625C754.402 138.092 754.56 137.683 754.877 137.4C755.21 137.117 755.669 136.975 756.252 136.975C756.852 136.975 757.31 137.117 757.627 137.4C757.944 137.683 758.102 138.092 758.102 138.625C758.102 139.142 757.944 139.55 757.627 139.85C757.31 140.133 756.852 140.275 756.252 140.275ZM762.624 155.2C762.124 155.2 761.741 155.067 761.474 154.8C761.208 154.517 761.074 154.117 761.074 153.6V144.15C761.074 143.633 761.208 143.242 761.474 142.975C761.741 142.708 762.116 142.575 762.599 142.575C763.083 142.575 763.458 142.708 763.724 142.975C763.991 143.242 764.124 143.633 764.124 144.15V145.85L763.849 145.225C764.216 144.342 764.783 143.675 765.549 143.225C766.333 142.758 767.216 142.525 768.199 142.525C769.183 142.525 769.991 142.708 770.624 143.075C771.258 143.442 771.733 144 772.049 144.75C772.366 145.483 772.524 146.417 772.524 147.55V153.6C772.524 154.117 772.391 154.517 772.124 154.8C771.858 155.067 771.474 155.2 770.974 155.2C770.474 155.2 770.083 155.067 769.799 154.8C769.533 154.517 769.399 154.117 769.399 153.6V147.7C769.399 146.75 769.216 146.058 768.849 145.625C768.499 145.192 767.949 144.975 767.199 144.975C766.283 144.975 765.549 145.267 764.999 145.85C764.466 146.417 764.199 147.175 764.199 148.125V153.6C764.199 154.667 763.674 155.2 762.624 155.2Z" fill="black"/>
<rect x="677" y="126" width="141" height="39" fill="#057209"/>
<path d="M727.525 154.2C727.008 154.2 726.608 154.058 726.325 153.775C726.058 153.475 725.925 153.067 725.925 152.55V138C725.925 137.467 726.067 137.067 726.35 136.8C726.633 136.517 727.033 136.375 727.55 136.375H733.575C735.508 136.375 737 136.858 738.05 137.825C739.1 138.792 739.625 140.142 739.625 141.875C739.625 143.608 739.1 144.967 738.05 145.95C737 146.917 735.508 147.4 733.575 147.4H729.125V152.55C729.125 153.067 728.992 153.475 728.725 153.775C728.458 154.058 728.058 154.2 727.525 154.2ZM729.125 144.875H733.075C734.208 144.875 735.067 144.625 735.65 144.125C736.233 143.608 736.525 142.858 736.525 141.875C736.525 140.892 736.233 140.15 735.65 139.65C735.067 139.15 734.208 138.9 733.075 138.9H729.125V144.875ZM746.109 154.25C744.725 154.25 743.684 153.858 742.984 153.075C742.284 152.275 741.934 151.108 741.934 149.575V137.75C741.934 137.233 742.067 136.842 742.334 136.575C742.6 136.308 742.984 136.175 743.484 136.175C743.984 136.175 744.367 136.308 744.634 136.575C744.917 136.842 745.059 137.233 745.059 137.75V149.425C745.059 150.192 745.217 150.758 745.534 151.125C745.867 151.492 746.334 151.675 746.934 151.675C747.067 151.675 747.192 151.675 747.309 151.675C747.425 151.658 747.542 151.642 747.659 151.625C747.892 151.592 748.05 151.658 748.134 151.825C748.217 151.975 748.259 152.292 748.259 152.775C748.259 153.192 748.175 153.517 748.009 153.75C747.842 153.983 747.567 154.125 747.184 154.175C747.017 154.192 746.842 154.208 746.659 154.225C746.475 154.242 746.292 154.25 746.109 154.25ZM753.942 154.25C753.059 154.25 752.267 154.083 751.567 153.75C750.884 153.4 750.342 152.933 749.942 152.35C749.559 151.767 749.367 151.108 749.367 150.375C749.367 149.475 749.6 148.767 750.067 148.25C750.534 147.717 751.292 147.333 752.342 147.1C753.392 146.867 754.8 146.75 756.567 146.75H757.817V148.55H756.592C755.559 148.55 754.734 148.6 754.117 148.7C753.5 148.8 753.059 148.975 752.792 149.225C752.542 149.458 752.417 149.792 752.417 150.225C752.417 150.775 752.609 151.225 752.992 151.575C753.375 151.925 753.909 152.1 754.592 152.1C755.142 152.1 755.625 151.975 756.042 151.725C756.475 151.458 756.817 151.1 757.067 150.65C757.317 150.2 757.442 149.683 757.442 149.1V146.225C757.442 145.392 757.259 144.792 756.892 144.425C756.525 144.058 755.909 143.875 755.042 143.875C754.559 143.875 754.034 143.933 753.467 144.05C752.917 144.167 752.334 144.367 751.717 144.65C751.4 144.8 751.117 144.842 750.867 144.775C750.634 144.708 750.45 144.575 750.317 144.375C750.184 144.158 750.117 143.925 750.117 143.675C750.117 143.425 750.184 143.183 750.317 142.95C750.45 142.7 750.675 142.517 750.992 142.4C751.759 142.083 752.492 141.858 753.192 141.725C753.909 141.592 754.559 141.525 755.142 141.525C756.342 141.525 757.325 141.708 758.092 142.075C758.875 142.442 759.459 143 759.842 143.75C760.225 144.483 760.417 145.433 760.417 146.6V152.6C760.417 153.117 760.292 153.517 760.042 153.8C759.792 154.067 759.434 154.2 758.967 154.2C758.5 154.2 758.134 154.067 757.867 153.8C757.617 153.517 757.492 153.117 757.492 152.6V151.4H757.692C757.575 151.983 757.342 152.492 756.992 152.925C756.659 153.342 756.234 153.667 755.717 153.9C755.2 154.133 754.609 154.25 753.942 154.25ZM766.567 158.7C766.2 158.7 765.9 158.6 765.667 158.4C765.433 158.217 765.292 157.967 765.242 157.65C765.208 157.333 765.267 157 765.417 156.65L767.117 152.875V154.175L762.567 143.65C762.417 143.283 762.367 142.942 762.417 142.625C762.467 142.308 762.617 142.058 762.867 141.875C763.133 141.675 763.492 141.575 763.942 141.575C764.325 141.575 764.633 141.667 764.867 141.85C765.1 142.017 765.308 142.342 765.492 142.825L768.867 151.25H768.117L771.567 142.8C771.75 142.333 771.967 142.017 772.217 141.85C772.467 141.667 772.8 141.575 773.217 141.575C773.583 141.575 773.875 141.675 774.092 141.875C774.308 142.058 774.442 142.308 774.492 142.625C774.542 142.925 774.483 143.258 774.317 143.625L768.242 157.5C768.025 157.967 767.792 158.283 767.542 158.45C767.292 158.617 766.967 158.7 766.567 158.7Z" fill="white"/>
<circle cx="15" cy="15" r="12.5" transform="matrix(1 0 0 -1 686 106)" fill="#38BC6D" stroke="black" stroke-width="5"/>
</svg>
